<svg width="150" height="150" viewBox="0 0 150 150" fill="none" xmlns="http://www.w3.org/2000/svg">
<rect width="150" height="150" fill="black"/>
<path d="M39.0352 95.6997H33.085V74.0162L22.6153 94.6079C22.358 95.1326 21.9946 95.5304 21.5252 95.8013C21.071 96.0721 20.5789 96.2076 20.0491 96.2076C19.5343 96.2076 19.0498 96.0721 18.5956 95.8013C18.1565 95.5304 17.8082 95.1326 17.5509 94.6079L7.03578 74.0162V95.6997H1.13098V62.1079C1.13098 61.3462 1.32781 60.6691 1.72146 60.0767C2.13025 59.4842 2.66017 59.0864 3.31122 58.8833C3.62916 58.7987 3.94711 58.7733 4.26507 58.8071C4.58302 58.8241 4.88582 58.9002 5.1735 59.0357C5.47631 59.1542 5.74883 59.3319 5.99108 59.5689C6.23333 59.7889 6.43773 60.0597 6.60428 60.3814L20.0491 86.5083L33.4938 60.3814C33.8421 59.7381 34.3189 59.2811 34.9246 59.0103C35.5453 58.7394 36.1888 58.6971 36.855 58.8833C37.4909 59.0864 38.0132 59.4842 38.4221 60.0767C38.8308 60.6691 39.0352 61.3462 39.0352 62.1079V95.6997Z" fill="white"/>
<path d="M71.489 77.3422C71.489 78.2564 71.3452 79.2466 71.0575 80.313C70.7698 81.3625 70.3004 82.3442 69.6493 83.2583C69.0135 84.1554 68.1732 84.9087 67.1285 85.5181C66.099 86.1275 64.8422 86.4321 63.3585 86.4321H52.7071V80.1606H63.3585C64.161 80.1606 64.7817 79.8898 65.2207 79.3481C65.6598 78.7895 65.8793 78.104 65.8793 77.2915C65.8793 76.4282 65.6296 75.7512 65.1299 75.2603C64.6455 74.7694 64.0549 74.524 63.3585 74.524H52.7071C51.9047 74.524 51.284 74.8032 50.8449 75.3618C50.4058 75.9035 50.1863 76.5806 50.1863 77.3931V86.6099C50.1863 87.49 50.4285 88.1756 50.9131 88.6665C51.4126 89.1574 52.0258 89.4028 52.7526 89.4028H63.3585V95.6997H52.7071C51.8896 95.6997 51.0039 95.5388 50.05 95.2172C49.1113 94.8956 48.2332 94.3794 47.4155 93.6684C46.6131 92.9405 45.9393 92.0012 45.3943 90.8501C44.8492 89.6821 44.5767 88.2687 44.5767 86.6099V77.3422C44.5767 76.4282 44.7205 75.4464 45.0082 74.3969C45.2958 73.3306 45.7577 72.3488 46.3935 71.4517C47.0446 70.5376 47.8849 69.7759 48.9145 69.1665C49.9591 68.5571 51.2234 68.2524 52.7071 68.2524H63.3585C64.1761 68.2524 65.0542 68.4132 65.9929 68.7349C66.9468 69.0565 67.8249 69.5812 68.6274 70.3091C69.445 71.0201 70.1263 71.9594 70.6713 73.1275C71.2164 74.2785 71.489 75.6834 71.489 77.3422Z" fill="white"/>
<path d="M97.788 74.854H87.4773V95.6997H81.5044V74.854H73.8281V68.2524H81.5044V59.2896H87.4773V68.2524H97.788V74.854Z" fill="white"/>
<path d="M125.608 86.6099C125.608 87.524 125.465 88.5142 125.177 89.5806C124.89 90.63 124.42 91.6118 123.769 92.5258C123.134 93.423 122.293 94.1763 121.248 94.7856C120.219 95.3951 118.962 95.6997 117.478 95.6997H106.827C106.009 95.6997 105.124 95.5388 104.17 95.2172C103.231 94.8956 102.353 94.3794 101.535 93.6684C100.733 92.9405 100.059 92.0012 99.514 90.8501C98.969 89.6821 98.6964 88.2687 98.6964 86.6099C98.6964 85.6958 98.8402 84.7056 99.1279 83.6392C99.4156 82.5728 99.8773 81.591 100.513 80.6939C101.164 79.7797 102.005 79.0181 103.034 78.4087C104.079 77.7993 105.343 77.4946 106.827 77.4946H117.478V83.7915H106.827C106.024 83.7915 105.404 84.0708 104.965 84.6294C104.525 85.1711 104.306 85.8481 104.306 86.6606C104.306 87.524 104.556 88.201 105.055 88.6919C105.57 89.1659 106.176 89.4028 106.872 89.4028H117.478C118.28 89.4028 118.901 89.1321 119.341 88.5903C119.779 88.0486 119.999 87.3716 119.999 86.5591V77.3422C119.999 76.479 119.757 75.7934 119.272 75.2856C118.804 74.7778 118.205 74.524 117.478 74.524H104.51V68.2524H117.478C118.295 68.2524 119.174 68.4132 120.113 68.7349C121.066 69.0565 121.944 69.5812 122.747 70.3091C123.565 71.0201 124.247 71.9594 124.791 73.1275C125.336 74.2785 125.608 75.6834 125.608 77.3422V86.6099Z" fill="white"/>
<path d="M138.837 62.4478C138.837 62.8998 138.787 63.3035 138.687 63.659C138.588 64.0145 138.451 64.3293 138.279 64.6035C138.11 64.8727 137.915 65.1037 137.693 65.2967C137.471 65.4897 137.236 65.6496 136.991 65.7766C136.75 65.8984 136.506 65.9873 136.256 66.0432C136.01 66.099 135.779 66.127 135.56 66.127L139.26 69.6994H136.521L132.828 66.127H131.555V64.1465H135.56C135.783 64.1262 135.985 64.0754 136.167 63.9941C136.353 63.9078 136.512 63.7936 136.644 63.6514C136.78 63.5092 136.885 63.3391 136.957 63.141C137.03 62.9379 137.066 62.7068 137.066 62.4478V61.1986C137.066 61.0869 137.052 61.0031 137.026 60.9473C137.002 60.8863 136.971 60.8432 136.93 60.8178C136.894 60.7873 136.852 60.7695 136.807 60.7645C136.766 60.7594 136.728 60.7568 136.692 60.7568H130.845V69.6994H129.074V59.7742C129.074 59.6371 129.096 59.5076 129.142 59.3857C129.188 59.2639 129.249 59.1572 129.327 59.0658C129.408 58.9744 129.503 58.9033 129.613 58.8525C129.722 58.8018 129.84 58.7764 129.966 58.7764H136.692C137.087 58.7764 137.421 58.8576 137.693 59.0201C137.965 59.1775 138.186 59.3781 138.353 59.6219C138.527 59.8605 138.649 60.1195 138.722 60.3988C138.799 60.6781 138.837 60.9397 138.837 61.1834V62.4478Z" fill="white"/>
<path d="M149.588 69.6994H141.508C141.381 69.6994 141.263 69.674 141.155 69.6232C141.045 69.5725 140.95 69.5039 140.867 69.4176C140.791 69.3262 140.729 69.2195 140.684 69.0977C140.638 68.9758 140.616 68.8437 140.616 68.7016V58.7764H142.387V67.7189H149.588V69.6994Z" fill="white"/>
</svg>
