<svg width="547" height="367" viewBox="0 0 547 367" fill="none" xmlns="http://www.w3.org/2000/svg">
<path opacity="0.6" d="M317.818 60.3979C282.751 59.1784 249.325 47.8501 217.456 35.4585C185.586 23.067 153.999 9.33494 119.753 2.76877C97.7341 -1.45918 72.5528 -2.05382 54.8151 9.75824C37.7422 21.1218 32.2275 40.7397 29.2612 58.9416C27.0301 72.6383 25.7358 87.0506 31.8347 99.8756C36.0803 108.775 43.6145 116.258 48.827 124.785C66.9575 154.451 54.1403 191.036 34.4888 220.027C25.2725 233.633 14.5805 246.579 7.46929 261.047C0.358105 275.514 -2.9356 292.089 3.28921 306.844C9.45862 321.458 24.1544 332.453 40.079 340.178C72.4219 355.856 110.531 360.341 147.694 362.911C229.956 368.539 312.661 366.1 395.14 363.661C425.665 362.754 456.325 361.842 486.352 357.11C503.027 354.485 520.245 350.323 532.353 340.274C547.718 327.515 551.531 305.916 541.232 289.917C523.957 263.088 476.198 256.421 464.121 227.626C457.479 211.778 464.303 194.12 473.962 179.421C494.676 147.89 529.406 120.224 531.235 84.1783C532.494 59.4203 515.798 34.6321 489.983 22.9158C462.928 10.625 425.408 12.1771 405.449 32.4904C384.896 53.4185 348.776 61.4713 317.818 60.3979Z" fill="#587EEC"/>
</svg>
