<svg width="444" height="303" viewBox="0 0 444 303" fill="none" xmlns="http://www.w3.org/2000/svg">
<path d="M441.416 41.9337C438.485 44.7758 424.842 47.7188 424.842 47.7188C424.842 47.7188 428.191 34.1631 431.122 31.3159C432.537 29.9905 434.415 29.274 436.353 29.3206C438.29 29.3672 440.132 30.1733 441.481 31.5652C442.831 32.9571 443.58 34.8236 443.568 36.7628C443.556 38.702 442.783 40.5589 441.416 41.9337Z" fill="#587EEC"/>
<path d="M433.701 66.4396C429.672 67.2358 416.643 62.2873 416.643 62.2873C416.643 62.2873 426.816 52.7127 430.82 51.9316C431.781 51.7181 432.775 51.6989 433.744 51.8752C434.713 52.0515 435.637 52.4197 436.462 52.9581C437.287 53.4966 437.995 54.1945 438.547 55.0108C439.098 55.8271 439.481 56.7455 439.673 57.7119C439.865 58.6784 439.862 59.6734 439.664 60.6387C439.467 61.604 439.078 62.52 438.522 63.333C437.965 64.146 437.252 64.8396 436.424 65.3731C435.597 65.9066 434.67 66.2692 433.701 66.4396V66.4396Z" fill="#587EEC"/>
<path d="M405.618 92.9867C401.761 91.6513 392.992 80.7866 392.992 80.7866C392.992 80.7866 406.59 77.6724 410.458 79.0078C411.387 79.3162 412.246 79.8063 412.985 80.4496C413.723 81.0928 414.327 81.8764 414.76 82.7549C415.193 83.6334 415.448 84.5893 415.509 85.5671C415.57 86.5448 415.437 87.525 415.116 88.4507C414.796 89.3764 414.295 90.2292 413.642 90.9596C412.99 91.69 412.199 92.2834 411.315 92.7054C410.431 93.1273 409.473 93.3695 408.495 93.4178C407.517 93.4661 406.539 93.3196 405.618 92.9867V92.9867Z" fill="#587EEC"/>
<path d="M379.813 108.286C375.784 107.621 365.328 98.3736 365.328 98.3736C365.328 98.3736 378.216 93.0017 382.24 93.6669C384.177 93.9857 385.908 95.0612 387.052 96.6569C388.196 98.2526 388.66 100.238 388.342 102.176C388.023 104.114 386.948 105.846 385.353 106.99C383.759 108.135 381.775 108.6 379.838 108.281L379.813 108.286Z" fill="#587EEC"/>
<path d="M405.266 51.6897C405.261 55.7765 412.669 67.634 412.669 67.634C412.669 67.634 420.067 55.7917 420.067 51.7099C420.093 50.7225 419.921 49.7399 419.561 48.8202C419.201 47.9004 418.661 47.0621 417.972 46.3546C417.283 45.6471 416.46 45.0848 415.55 44.7009C414.641 44.3169 413.664 44.1191 412.677 44.1191C411.69 44.1191 410.712 44.3169 409.803 44.7009C408.893 45.0848 408.07 45.6471 407.381 46.3546C406.692 47.0621 406.152 47.9004 405.792 48.8202C405.432 49.7399 405.26 50.7225 405.286 51.7099L405.266 51.6897Z" fill="#587EEC"/>
<path d="M375.335 69.9621C376.554 73.8625 387.15 82.9584 387.15 82.9584C387.15 82.9584 390.676 69.4431 389.447 65.5427C388.81 63.7356 387.496 62.2465 385.784 61.3888C384.071 60.5312 382.093 60.372 380.265 60.9448C378.438 61.5175 376.903 62.7776 375.986 64.4595C375.068 66.1415 374.839 68.1142 375.345 69.9621H375.335Z" fill="#587EEC"/>
<path d="M348.709 91.7167C349.253 95.7481 358.157 106.517 358.157 106.517C358.157 106.517 363.903 93.7929 363.359 89.7463C363.251 88.7659 362.949 87.8169 362.469 86.9553C361.989 86.0937 361.342 85.3367 360.565 84.7291C359.789 84.1214 358.899 83.6752 357.947 83.4168C356.996 83.1584 356.003 83.093 355.026 83.2244C354.049 83.3558 353.108 83.6814 352.258 84.1819C351.409 84.6825 350.668 85.348 350.08 86.1393C349.491 86.9306 349.067 87.8316 348.831 88.7894C348.596 89.7473 348.554 90.7425 348.709 91.7167V91.7167Z" fill="#587EEC"/>
<path opacity="0.25" d="M379.813 108.286C375.784 107.621 365.328 98.3736 365.328 98.3736C365.328 98.3736 378.216 93.0017 382.24 93.6669C384.177 93.9857 385.908 95.0612 387.052 96.6569C388.196 98.2526 388.66 100.238 388.342 102.176C388.023 104.114 386.948 105.846 385.353 106.99C383.759 108.135 381.775 108.6 379.838 108.281L379.813 108.286Z" fill="black"/>
<path opacity="0.25" d="M375.335 69.9621C376.554 73.8625 387.15 82.9584 387.15 82.9584C387.15 82.9584 390.676 69.4431 389.447 65.5427C388.81 63.7356 387.496 62.2465 385.784 61.3888C384.071 60.5312 382.093 60.372 380.265 60.9448C378.438 61.5175 376.903 62.7776 375.986 64.4595C375.068 66.1415 374.839 68.1142 375.345 69.9621H375.335Z" fill="black"/>
<path opacity="0.25" d="M348.709 91.7167C349.253 95.7481 358.157 106.517 358.157 106.517C358.157 106.517 363.903 93.7929 363.359 89.7463C363.251 88.7659 362.949 87.8169 362.469 86.9553C361.989 86.0937 361.342 85.3367 360.565 84.7291C359.789 84.1214 358.899 83.6752 357.947 83.4168C356.996 83.1584 356.003 83.093 355.026 83.2244C354.049 83.3558 353.108 83.6814 352.258 84.1819C351.409 84.6825 350.668 85.348 350.08 86.1393C349.491 86.9306 349.067 87.8316 348.831 88.7894C348.596 89.7473 348.554 90.7425 348.709 91.7167V91.7167Z" fill="black"/>
<path d="M373.079 95.8186C369.126 96.8265 355.81 92.659 355.81 92.659C355.81 92.659 365.414 82.525 369.368 81.497C371.266 81.0045 373.281 81.2866 374.972 82.2813C376.662 83.2759 377.888 84.9017 378.38 86.8008C378.872 88.7 378.59 90.717 377.596 92.4082C376.602 94.0993 374.977 95.3261 373.079 95.8186V95.8186Z" fill="#587EEC"/>
<path d="M78.8613 301.809C78.8613 301.809 51.1619 280.856 45.9292 254.203C43.8072 243.009 38.1154 232.805 29.7074 225.121C25.6852 221.507 21.341 218.268 16.729 215.446" stroke="#9AB1F3" stroke-width="2" stroke-miterlimit="10"/>
<path d="M13.3397 198.655C15.7671 201.941 16.8651 215.864 16.8651 215.864C16.8651 215.864 3.88663 210.75 1.45412 207.469C0.286051 205.892 -0.208063 203.915 0.0804755 201.974C0.369014 200.032 1.41657 198.285 2.99269 197.116C4.56881 195.947 6.5444 195.453 8.48483 195.741C10.4253 196.03 12.1716 197.078 13.3397 198.655V198.655Z" fill="#587EEC"/>
<path d="M36.6173 209.58C36.8691 213.657 30.2364 225.943 30.2364 225.943C30.2364 225.943 22.1129 214.584 21.856 210.508C21.7583 208.564 22.4299 206.66 23.7253 205.209C25.0207 203.757 26.8355 202.875 28.7765 202.753C30.7176 202.631 32.6284 203.279 34.0951 204.557C35.5618 205.835 36.4662 207.64 36.6123 209.58H36.6173Z" fill="#587EEC"/>
<path d="M59.1797 240.985C57.3465 244.634 45.4156 251.89 45.4156 251.89C45.4156 251.89 44.1415 237.982 45.9747 234.333C46.8771 232.618 48.4166 231.325 50.2619 230.733C52.1073 230.142 54.1109 230.299 55.8416 231.171C57.5723 232.043 58.8918 233.56 59.5161 235.395C60.1404 237.231 60.0196 239.238 59.1797 240.985V240.985Z" fill="#587EEC"/>
<path d="M70.9089 268.58C69.7153 272.486 59.1845 281.652 59.1845 281.652C59.1845 281.652 55.5735 268.162 56.7671 264.252C57.3408 262.375 58.6359 260.804 60.3676 259.883C62.0993 258.962 64.1257 258.767 66.001 259.341C67.8764 259.915 69.447 261.211 70.3674 262.943C71.2878 264.676 71.4826 266.704 70.9089 268.58V268.58Z" fill="#587EEC"/>
<path d="M18.2298 235.82C22.2588 236.364 34.9955 230.609 34.9955 230.609C34.9955 230.609 24.2482 221.7 20.199 221.156C18.2556 220.894 16.288 221.416 14.7291 222.607C13.1703 223.797 12.1478 225.558 11.8867 227.503C11.6256 229.447 12.1471 231.416 13.3367 232.976C14.5263 234.536 16.2864 235.559 18.2298 235.82V235.82Z" fill="#587EEC"/>
<path d="M32.3565 267.925C36.3855 267.235 46.7954 257.937 46.7954 257.937C46.7954 257.937 33.8724 252.656 29.8484 253.347C28.885 253.505 27.9624 253.852 27.1338 254.369C26.3053 254.885 25.5872 255.561 25.0211 256.357C24.455 257.153 24.052 258.053 23.8354 259.005C23.6188 259.958 23.5929 260.944 23.7591 261.907C23.9254 262.869 24.2806 263.789 24.8041 264.614C25.3276 265.438 26.0092 266.151 26.8095 266.711C27.6097 267.27 28.5128 267.665 29.4666 267.874C30.4204 268.082 31.406 268.1 32.3665 267.925H32.3565Z" fill="#587EEC"/>
<path d="M50.3611 297.249C54.4455 297.249 66.2807 289.846 66.2807 289.846C66.2807 289.846 54.4405 282.453 50.3561 282.453C48.3953 282.453 46.5148 283.233 45.1283 284.62C43.7418 286.007 42.9629 287.889 42.9629 289.851C42.9629 291.813 43.7418 293.695 45.1283 295.082C46.5148 296.469 48.3953 297.249 50.3561 297.249H50.3611Z" fill="#587EEC"/>
<path d="M347.948 120.582C347.948 120.582 365.021 90.321 390.756 81.603C401.563 78.012 410.914 71.0118 417.408 61.6525C420.454 57.178 423.082 52.4329 425.26 47.4771" stroke="#9AB1F3" stroke-width="2" stroke-miterlimit="10"/>
<path opacity="0.25" d="M441.416 41.9338C438.485 44.7759 424.842 47.7189 424.842 47.7189C424.842 47.7189 428.191 34.1632 431.122 31.316C432.537 29.9906 434.415 29.2741 436.353 29.3207C438.29 29.3674 440.132 30.1734 441.481 31.5653C442.831 32.9572 443.58 34.8237 443.568 36.7629C443.556 38.7022 442.783 40.559 441.416 41.9338Z" fill="black"/>
<path opacity="0.25" d="M433.701 66.4398C429.672 67.236 416.643 62.2874 416.643 62.2874C416.643 62.2874 426.816 52.7128 430.82 51.9317C431.781 51.7182 432.775 51.6991 433.744 51.8753C434.713 52.0516 435.637 52.4198 436.462 52.9583C437.287 53.4967 437.995 54.1946 438.547 55.0109C439.098 55.8273 439.481 56.7456 439.673 57.712C439.865 58.6785 439.862 59.6736 439.664 60.6388C439.467 61.6041 439.078 62.5201 438.522 63.3331C437.965 64.1461 437.252 64.8397 436.424 65.3732C435.597 65.9067 434.67 66.2693 433.701 66.4398V66.4398Z" fill="black"/>
<path opacity="0.25" d="M405.618 92.9867C401.761 91.6513 392.992 80.7866 392.992 80.7866C392.992 80.7866 406.59 77.6724 410.458 79.0078C411.387 79.3162 412.246 79.8063 412.985 80.4496C413.723 81.0928 414.327 81.8764 414.76 82.7549C415.193 83.6334 415.448 84.5893 415.509 85.5671C415.57 86.5448 415.437 87.525 415.116 88.4507C414.796 89.3764 414.295 90.2292 413.642 90.9596C412.99 91.69 412.199 92.2834 411.315 92.7054C410.431 93.1273 409.473 93.3695 408.495 93.4178C407.517 93.4661 406.539 93.3196 405.618 92.9867V92.9867Z" fill="black"/>
<path opacity="0.25" d="M405.266 51.6898C405.261 55.7767 412.669 67.6341 412.669 67.6341C412.669 67.6341 420.067 55.7918 420.067 51.71C420.093 50.7226 419.921 49.74 419.561 48.8203C419.201 47.9005 418.661 47.0622 417.972 46.3547C417.283 45.6472 416.46 45.0849 415.55 44.701C414.641 44.3171 413.664 44.1193 412.677 44.1193C411.69 44.1193 410.712 44.3171 409.803 44.701C408.893 45.0849 408.07 45.6472 407.381 46.3547C406.692 47.0622 406.152 47.9005 405.792 48.8203C405.432 49.74 405.26 50.7226 405.286 51.71L405.266 51.6898Z" fill="black"/>
<path d="M348.93 119.982C348.93 119.982 352.285 85.3925 372.258 66.9992C380.683 59.3336 386.398 49.1422 388.546 37.9528C389.523 32.6335 390.01 27.2356 390.001 21.8271" stroke="#9AB1F3" stroke-width="2" stroke-miterlimit="10"/>
<path d="M402.521 10.1561C401.01 13.9457 389.709 22.1698 389.709 22.1698C389.709 22.1698 387.281 8.41758 388.807 4.62804C389.542 2.8084 390.969 1.35529 392.774 0.588388C394.58 -0.178518 396.616 -0.196406 398.434 0.538668C400.253 1.27374 401.705 2.70156 402.472 4.50802C403.238 6.31448 403.256 8.3516 402.521 10.1712V10.1561Z" fill="#587EEC"/>
<path d="M405.397 35.7154C402.058 38.0637 388.123 38.8347 388.123 38.8347C388.123 38.8347 393.552 25.9643 396.891 23.616C397.683 23.023 398.585 22.595 399.545 22.3574C400.506 22.1198 401.504 22.0773 402.48 22.2326C403.457 22.3879 404.393 22.7377 405.232 23.2613C406.072 23.785 406.798 24.4718 407.367 25.2812C407.936 26.0905 408.337 27.0059 408.546 27.9732C408.756 28.9405 408.769 29.9399 408.585 30.9124C408.402 31.8849 408.025 32.8106 407.477 33.6347C406.929 34.4588 406.222 35.1646 405.397 35.7103V35.7154Z" fill="#587EEC"/>
<path d="M390.459 71.3832C386.39 71.7259 373.971 65.3361 373.971 65.3361C373.971 65.3361 385.151 56.9709 389.22 56.6282C391.175 56.4638 393.114 57.0829 394.612 58.3493C396.11 59.6156 397.044 61.4255 397.208 63.3808C397.372 65.3361 396.754 67.2766 395.488 68.7755C394.222 70.2743 392.414 71.2087 390.459 71.3731V71.3832Z" fill="#587EEC"/>
<path d="M373.432 33.7601C375.084 37.4942 386.637 45.3504 386.637 45.3504C386.637 45.3504 388.601 31.5226 386.949 27.7885C386.126 26.0415 384.653 24.6858 382.844 24.0113C381.035 23.3367 379.035 23.3967 377.269 24.1784C375.504 24.9602 374.115 26.4017 373.398 28.1949C372.681 29.9881 372.693 31.9909 373.432 33.7752V33.7601Z" fill="#587EEC"/>
</svg>
