<svg width="373" height="395" viewBox="0 0 373 395" fill="none" xmlns="http://www.w3.org/2000/svg">
<path d="M299.511 126.146C302.206 129.215 315.572 133.236 315.572 133.236C315.572 133.236 313.316 119.454 310.621 116.385C309.985 115.639 309.207 115.028 308.333 114.585C307.459 114.143 306.506 113.879 305.529 113.809C304.551 113.738 303.57 113.863 302.642 114.175C301.713 114.488 300.856 114.982 300.12 115.629C299.384 116.275 298.783 117.062 298.354 117.943C297.924 118.824 297.674 119.781 297.617 120.76C297.56 121.738 297.699 122.718 298.024 123.643C298.349 124.568 298.855 125.418 299.511 126.146V126.146Z" fill="#587EEC"/>
<path d="M283.954 156.845C286.09 160.322 298.585 166.546 298.585 166.546C298.585 166.546 298.69 152.582 296.57 149.1C295.515 147.492 293.875 146.359 291.998 145.94C290.122 145.522 288.156 145.852 286.519 146.859C284.881 147.867 283.7 149.473 283.226 151.337C282.752 153.201 283.022 155.177 283.979 156.845H283.954Z" fill="#587EEC"/>
<path d="M269.288 48.0723C270.124 45.0034 271.132 41.9194 271.837 38.8101C270.991 41.9194 269.978 45.0135 269.288 48.0723Z" fill="url(#paint0_linear_21_202)"/>
<path d="M265.541 77.6327C265.471 77.5117 265.421 77.3908 265.365 77.2799C265.365 77.2295 265.315 77.1892 265.295 77.1388C265.185 77.1906 265.072 77.2361 264.957 77.2749C264.736 77.3606 264.509 77.4412 264.277 77.5067C264.046 77.5722 263.95 77.6075 263.774 77.6478C263.628 77.6982 263.478 77.7369 263.326 77.7637L263.366 77.8544C263.552 77.8141 263.733 77.7788 263.92 77.7284L263.97 78.3533C264.182 78.3533 264.378 78.3231 264.57 78.3231C264.66 78.3181 264.751 78.3181 264.841 78.3231C265.234 78.3231 265.577 78.3231 265.849 78.3231C265.743 78.0963 265.632 77.8594 265.541 77.6327ZM367.777 240.467C365.41 237.277 360.686 203.04 360.686 203.04C360.686 203.04 351.395 178.695 353.928 168.98C356.461 159.264 347.008 134.405 347.008 134.405C347.008 134.405 340.763 131.689 340.426 127.658C340.426 127.658 314.927 119.595 313.733 113.548C312.766 108.589 296.953 105.031 291.272 103.907C289.539 96.9129 287.797 90.3871 286.512 86.8243C286.165 85.7157 285.838 84.7582 285.535 84.0023C283.365 78.4591 276.656 77.9552 271.791 78.3986C271.581 77.4539 271.189 76.5589 270.638 75.7631C270.558 75.4895 270.398 75.2458 270.18 75.0626C270.075 74.9736 269.964 74.8927 269.847 74.8208C269.759 74.6574 269.644 74.5108 269.505 74.3874C269.367 74.2628 269.215 74.1546 269.052 74.0649C268.935 74.0015 268.814 73.946 268.689 73.8986C268.397 73.7874 268.095 73.7047 267.788 73.6516C267.429 73.5778 267.065 73.5307 266.7 73.5106C267.589 73.1215 268.381 72.5417 269.022 71.8123C269.457 71.3002 269.781 70.703 269.973 70.0586C270.133 69.5228 270.204 68.9646 270.185 68.4058C270.054 68.636 269.903 68.8537 269.732 69.0558C269.943 66.8234 268.765 64.5558 268.09 62.3334C267.272 59.4403 267.121 56.3993 267.647 53.4391C268.322 48.9743 269.994 44.4591 271.127 39.9137C271.13 39.8886 271.13 39.8632 271.127 39.8381C271.721 37.5808 272.089 35.2697 272.225 32.9393C272.421 28.2377 271.217 23.5461 269.283 19.2628C267.566 15.4682 265.033 11.7341 261.155 10.1921C258.274 9.02799 255.046 9.21444 251.944 9.02295C244.984 8.58957 238.346 6.14048 231.728 3.91312C225.11 1.68576 218.301 -0.340025 211.336 0.0479989C204.371 0.436023 197.205 3.79722 194.027 9.96529C193.019 11.8903 192.44 14.032 191.237 15.8411C188.98 19.2527 184.941 20.961 181.572 23.3143C178.203 25.6677 175.236 29.0087 174.018 32.9948C173.352 35.1423 173.258 37.4265 173.746 39.6214V39.6214C173.855 40.1171 173.997 40.6052 174.169 41.0828C174.647 42.4143 175.392 43.6337 176.36 44.6657C177.089 45.4285 177.927 46.0789 178.847 46.5958V46.5958C180.003 47.2366 181.239 47.718 182.524 48.0269C182.479 48.1781 182.433 48.3394 182.383 48.4956C182.302 48.7526 182.232 48.9995 182.156 49.2767C181.99 49.8965 181.834 50.5264 181.703 51.1614C181.698 51.2066 181.698 51.2522 181.703 51.2974C181.084 54.1637 180.774 57.088 180.776 60.0204C180.775 61.4072 180.846 62.7932 180.988 64.1728V64.1728C183.002 84.6221 199.874 100.753 220.719 101.801C221.434 101.836 222.154 101.856 222.884 101.856C223.217 101.856 223.544 101.856 223.892 101.856C224.219 102.29 224.541 102.733 224.849 103.167C225.156 103.6 225.438 104.044 225.705 104.477L224.974 103.721L224.244 103.051C224.046 103.323 223.826 103.577 223.584 103.812C223.108 103.644 222.622 103.506 222.129 103.398V103.398C220.039 102.935 216.856 102.764 212.666 104.028C208.813 105.182 204.104 107.556 198.595 112.066L171.746 128.192L157.222 137.031L151.989 149.83C151.989 149.83 148.056 165.039 143.679 182.465C143.508 182.515 143.342 182.565 143.176 182.626C142.821 182.586 142.465 182.565 142.108 182.565C139.569 182.56 137.126 183.538 135.293 185.297C133.46 187.055 132.379 189.455 132.277 191.994C123.575 202.576 123.081 213.159 125.126 218.017C125.311 218.472 125.544 218.906 125.821 219.312C127.16 221.247 129.663 226.236 132.202 231.552C132.136 231.991 132.096 232.359 132.076 232.636C132.071 232.726 132.071 232.817 132.076 232.908C132.076 232.908 133.587 255.741 128.55 262.287C127.447 263.713 127.614 265.588 128.55 267.664C131.925 275.132 145.266 285.105 145.266 285.105C145.266 285.105 161.266 285.019 170.18 284.046C170.155 284.943 170.135 285.835 170.115 286.707C169.913 295.516 169.913 302.898 169.913 302.898L169.581 312.135C169.581 312.135 166.559 331.602 165.048 336.969C164.096 340.335 165.194 371.503 166.151 394.417H323.796C325.649 380.861 323.035 339.675 323.035 339.675C323.035 339.675 320.552 329.027 320.462 319.745C320.457 319.734 320.454 319.723 320.454 319.712C320.454 319.701 320.457 319.689 320.462 319.679C320.462 318.868 320.462 318.077 320.492 317.301L321.635 317.26L323.69 317.19H323.876C323.876 317.19 323.927 316.998 324.043 316.686C324.315 315.908 324.685 315.167 325.146 314.484C326.022 313.189 327.392 311.919 329.452 311.833C330.59 311.788 332.352 310.865 334.342 309.505C334.355 309.508 334.369 309.508 334.382 309.505C339.736 305.882 346.812 299.194 348.529 298.096C350.891 296.584 362.202 286.506 362.202 286.506C362.202 286.506 363.889 284.369 365.687 281.794L365.753 281.703C367.989 278.478 370.366 274.623 369.782 273.408C368.775 271.232 370.457 266.026 370.457 266.026C375.71 256.406 370.144 243.657 367.777 240.467ZM270.391 85.4687C270.44 85.6192 270.47 85.7748 270.482 85.9324C270.356 85.7661 270.23 85.5897 270.104 85.4284L269.983 85.2672L269.898 85.1462L270.089 84.8842C270.089 84.8842 270.089 84.8842 270.089 84.9195C270.222 85.0828 270.325 85.2689 270.391 85.4687V85.4687ZM268.699 81.0039C268.15 81.1148 267.717 81.2156 267.435 81.2912C267.078 80.6562 266.735 80.0213 266.428 79.3763C267.235 79.845 267.996 80.39 268.699 81.0039V81.0039ZM267.752 81.8002C267.751 81.7901 267.751 81.7799 267.752 81.7699L267.793 81.8002C267.999 81.9362 268.201 82.0672 268.387 82.2033C268.553 82.3242 268.704 82.4401 268.855 82.5611C268.755 82.7375 268.644 82.9189 268.533 83.065C268.357 82.7879 268.191 82.5208 268.029 82.2436C267.929 82.1328 267.838 81.9816 267.752 81.8002ZM264.731 75.5817C265.704 75.4856 266.684 75.4856 267.657 75.5817V75.5817C267.793 75.5817 267.914 75.6069 268.034 75.627C268.308 75.6693 268.576 75.7385 268.835 75.8337C269.43 76.6668 269.797 77.6416 269.898 78.6607L269.626 78.701L269.359 78.7514C268.855 78.8371 268.352 78.9227 267.959 79.0034L267.455 79.1092C266.785 79.2553 266.398 79.3662 266.383 79.3712C266.317 79.2352 266.252 79.1092 266.181 78.9782C266.07 78.7615 265.954 78.5397 265.854 78.3231C265.753 78.1064 265.622 77.8594 265.516 77.6327C265.446 77.5117 265.395 77.3908 265.34 77.2799C265.34 77.2295 265.29 77.1892 265.27 77.1388C265.24 77.0854 265.215 77.0298 265.194 76.9725C264.887 76.3477 264.605 75.7228 264.333 75.108C264.303 75.0475 264.277 74.982 264.252 74.9215L264.635 74.8964V75.0274L264.731 75.5817ZM144.571 388.188C144.53 380.685 143.986 372.566 142.476 364.947C141.831 361.707 141.166 358.466 140.491 355.282C140.32 354.485 140.154 353.699 139.988 352.913L138.437 353.12H138.296C134.065 333.159 129.643 315.572 129.643 315.572C129.643 315.572 120.86 282.016 121.877 279.34C122.008 278.992 121.842 278.055 121.469 276.679C119.344 269.05 110.47 248.026 107.368 240.84C107.368 240.809 107.343 240.774 107.333 240.749C106.829 239.545 106.466 238.733 106.356 238.496L107.086 227.773L107.126 227.128L107.222 225.757L107.182 225.722L107.222 225.087C107.222 225.087 99.5567 218.798 86.5732 214.257C86.0696 214.076 85.5357 213.9 85.0069 213.728C85.6566 209.39 86.5178 204.491 87.6409 199.719C87.7466 199.24 87.8625 198.777 87.9833 198.308C88.0891 197.84 88.21 197.386 88.3308 196.927C88.5222 196.182 88.7287 195.446 88.9402 194.72C89.6403 194.498 90.3302 194.252 91.0101 193.99L91.272 193.889C99.6477 190.628 106.559 184.44 110.726 176.472C114.892 168.504 116.033 159.296 113.935 150.551V150.551C112.739 145.592 110.531 140.933 107.448 136.869C107.217 136.557 106.97 136.244 106.723 135.937C106.476 135.63 106.179 135.287 105.902 134.975C107.358 131.664 109.075 128.514 109.216 125.294C109.241 124.886 109.241 124.477 109.216 124.07V124.019C109.03 121.948 108.113 119.852 105.978 117.65C102.86 114.419 98.4235 112.782 93.9865 111.995C89.5496 111.209 85.0271 111.189 80.5649 110.66C73.1667 109.773 65.9598 107.49 58.5615 106.79C49.4489 105.946 40.2743 107.509 31.955 111.325C26.4504 113.845 20.8753 118.249 20.5429 124.291C20.2709 129.285 23.7459 134.073 22.8696 139.006C21.9983 143.854 17.0628 147.669 17.4959 152.572C17.6621 154.487 18.6442 156.2 19.8731 157.727C20.2961 158.231 20.7443 158.735 21.2077 159.239C23.0006 161.139 24.9748 162.963 25.977 165.356C26.0173 165.457 26.0576 165.558 26.0928 165.659C26.9439 168.022 26.5612 171.01 24.456 172.366C24.4677 172.375 24.4765 172.387 24.4812 172.401V172.401C24.5114 172.442 24.5417 172.472 24.5668 172.512C24.5699 172.504 24.5699 172.495 24.5668 172.487C25.3132 173.372 26.3194 174 27.4425 174.281L27.8706 174.412C27.5231 174.79 27.1958 175.183 26.8634 175.596L26.6468 175.883C26.0918 176.63 25.587 177.413 25.1359 178.227C24.8791 178.68 24.6323 179.134 24.4258 179.587C23.7355 180.97 23.2357 182.439 22.9401 183.956C22.4013 187.292 23.1617 190.769 22.3458 194.035C21.3386 198.066 18.1506 201.16 16.3527 204.905C12.9482 211.96 14.8771 220.239 15.562 228.03C16.4937 238.612 14.9829 249.24 13.477 259.752C12.6779 265.342 11.8788 270.938 11.0797 276.538C9.06525 290.594 7.05075 304.65 5.03625 318.707C4.30095 323.857 3.42969 329.289 0 333.265H0.0352498C0.0352498 333.265 0.0352538 333.295 0 333.305C1.02956 333.756 2.12453 334.038 3.24334 334.142V334.142C7.72057 334.59 12.4647 332.423 16.4937 330.055C19.6844 328.21 22.7062 326.087 25.5237 323.711C25.1108 325.222 24.6676 326.87 24.1942 328.644C24.1957 328.661 24.1957 328.678 24.1942 328.694V328.694C18.5082 350.363 9.36239 390.088 9.36239 390.088C9.36239 390.088 8.53141 391.816 7.45366 394.391H149.476C147.814 392.376 146.268 390.446 145.059 388.889L144.571 388.188ZM39.4137 187.826C39.449 187.766 39.4742 187.711 39.5094 187.655C39.5094 187.816 39.5094 187.973 39.5094 188.124C39.5094 188.275 39.5094 188.411 39.5094 188.552C39.5094 188.693 39.5094 188.678 39.5094 188.749C39.5094 188.819 39.5094 188.749 39.5094 188.749C39.5094 188.955 39.4641 189.162 39.4288 189.369C39.4288 189.369 39.4288 189.394 39.4288 189.414L39.9324 189.6L40.5167 189.842C43.9682 191.206 47.4633 192.441 51.0021 193.546C51.3647 193.662 51.7324 193.773 52.1 193.879L52.1756 194.504C52.2662 195.144 52.3519 195.794 52.4324 196.444C52.4324 196.444 52.4324 196.474 52.4324 196.494C52.6591 198.293 52.8807 200.087 53.0771 201.841C53.0771 201.841 43.8305 198.313 43.9463 203.67C43.9411 203.766 43.9411 203.862 43.9463 203.957C43.9361 204.085 43.9361 204.213 43.9463 204.34C44.032 208.513 45.3363 210.987 45.5982 212.257C45.5825 212.309 45.555 212.358 45.5177 212.398C45.2942 212.884 45.2172 213.426 45.2961 213.955C45.2873 214.857 45.3581 215.757 45.5076 216.646C45.2356 216.812 44.9687 216.979 44.7018 217.15C44.5003 217.276 44.3089 217.417 44.1125 217.558C42.8771 213.27 41.2607 209.101 39.2828 205.101C37.8978 202.249 36.3416 199.276 36.3567 196.146C36.3567 195.945 36.3567 195.738 36.3819 195.532C36.438 194.625 36.6107 193.729 36.8956 192.866C37.0114 192.538 37.1373 192.216 37.2783 191.898C37.6075 191.144 37.9756 190.407 38.3813 189.691C38.6432 189.217 38.9202 188.749 39.1871 188.275C39.2727 188.134 39.3533 187.988 39.4339 187.847L39.4137 187.826ZM265.541 77.6327C265.471 77.5117 265.421 77.3908 265.365 77.2799C265.365 77.2295 265.315 77.1892 265.295 77.1388C265.185 77.1906 265.072 77.2361 264.957 77.2749C264.736 77.3606 264.509 77.4412 264.277 77.5067C264.046 77.5722 263.95 77.6075 263.774 77.6478L263.326 77.7637L263.366 77.8544C263.552 77.8141 263.733 77.7788 263.92 77.7284L263.97 78.3533C264.182 78.3533 264.378 78.3231 264.57 78.3231H264.841C265.234 78.3231 265.577 78.3231 265.849 78.3231C265.743 78.0963 265.632 77.8594 265.541 77.6327Z" fill="url(#paint1_linear_21_202)"/>
<path d="M155.499 151.65L152.478 152.985C152.478 152.985 132.781 229.552 132.781 235.74C132.781 241.928 174.547 276.362 174.547 276.362L181.063 232.348C181.063 232.348 171.706 131.417 155.499 151.65Z" fill="#E8F5FF"/>
<path d="M247.114 127.295L229.663 118.184C228.686 114.014 226.951 110.06 224.546 106.518C221.993 102.829 218.599 99.2058 214.368 97.316C203.676 92.5186 259.594 67.3374 259.594 67.3374C260.474 70.3624 261.512 73.3396 262.701 76.2569C265.582 83.3724 270.361 92.5741 276.52 95.1945C286.991 99.6543 247.114 127.295 247.114 127.295Z" fill="#FFB0B1"/>
<path opacity="0.1" d="M262.701 76.2569C260.312 84.6649 255.343 92.1095 248.497 97.5393C241.651 102.969 233.273 106.11 224.546 106.518C221.993 102.829 218.599 99.2058 214.368 97.316C203.676 92.5186 259.594 67.3374 259.594 67.3374C260.474 70.3624 261.512 73.3396 262.701 76.2569V76.2569Z" fill="black"/>
<path d="M264.272 63.5429C264.274 71.789 261.832 79.8505 257.255 86.7078C252.678 93.5651 246.171 98.9102 238.558 102.067C230.944 105.224 222.566 106.051 214.483 104.443C206.4 102.835 198.975 98.8645 193.148 93.0339C187.32 87.2034 183.351 79.7745 181.743 71.6869C180.135 63.5992 180.961 55.2161 184.115 47.5977C187.269 39.9794 192.61 33.4681 199.462 28.8873C206.315 24.3065 214.371 21.862 222.613 21.863C228.09 21.8377 233.518 22.8984 238.584 24.984C243.649 27.0695 248.252 30.1386 252.125 34.0139C255.999 37.8893 259.066 42.494 261.151 47.5624C263.236 52.6307 264.297 58.0621 264.272 63.5429V63.5429Z" fill="#FFB0B1"/>
<path d="M270.286 121.943L258.924 148.47L248.902 166.077H216.821L207.463 142.004L211.256 117.04H235.757L251.576 116.148L256.919 114.364L260.364 116.319L270.286 121.943Z" fill="#575A89"/>
<path opacity="0.1" d="M266.372 86.5824C266.372 86.5824 273.458 88.0942 267.113 93.2997C260.767 98.5053 238.875 115.059 238.875 115.059C238.875 115.059 246.565 121.913 244.973 129.94L270.452 115.73L274.984 92.9923C274.984 92.9923 275.493 86.1591 266.372 86.5824Z" fill="black"/>
<path opacity="0.1" d="M243.886 115.059L227.679 117.735C227.679 117.735 231.023 130.107 229.351 133.619C229.3 133.728 229.258 133.841 229.225 133.957L222.612 151.841L227.568 165.886L244.722 142.478L238.874 133.619C238.874 133.619 245.054 125.425 248.73 122.583C252.407 119.741 243.886 115.059 243.886 115.059Z" fill="black"/>
<path d="M243.886 114.369L227.679 117.04C227.679 117.04 231.023 129.411 229.351 132.924C229.3 133.033 229.258 133.146 229.225 133.261L222.612 151.146L227.568 165.19L244.722 141.768L238.874 132.908C238.874 132.908 245.054 124.715 248.73 121.872C252.407 119.03 243.886 114.369 243.886 114.369Z" fill="#DCE6F2"/>
<path d="M267.052 85.247C267.052 85.247 274.138 86.7588 267.788 91.9643C261.437 97.1699 238.875 115.059 238.875 115.059C238.875 115.059 247.23 120.577 245.643 128.6L271.122 114.394L275.654 91.6569C275.654 91.6569 276.158 84.8237 267.052 85.247Z" fill="#575A89"/>
<path opacity="0.1" d="M225.66 108.095C225.66 108.095 227.206 110.988 234.03 116.203C234.03 116.203 222.668 122.25 227.014 130.752L209.634 126.216L206.96 117.856L225.66 108.095Z" fill="black"/>
<path d="M224.99 107.43C224.99 107.43 226.536 110.322 233.36 115.538C233.36 115.538 221.998 121.555 226.344 130.081L208.969 125.546L206.295 117.191L224.99 107.43Z" fill="#575A89"/>
<path opacity="0.1" d="M270.286 121.943L258.924 148.47L248.922 166.077H216.821L207.463 142.004L211.251 117.04H218.065C217.954 122.865 220.079 129.709 219.943 132.253C219.712 136.436 226.178 159.002 226.178 159.002C226.178 159.002 239.711 137.101 245.054 135.151C248.413 133.926 255.529 123.737 260.359 116.319L270.286 121.943Z" fill="black"/>
<path d="M315.043 261.536L313.889 262.987C313.889 262.987 322.245 304.949 319.933 314.479C319.54 316.196 319.316 317.948 319.263 319.709V319.785C318.855 329.481 321.781 342.064 321.781 342.064C321.781 342.064 324.118 379.153 322.789 394.407H166.352C165.436 371.851 164.449 342.628 165.345 339.388C166.856 334.041 169.878 314.645 169.878 314.645L170.21 305.453C170.21 305.453 170.21 296.569 170.482 286.672C170.598 282.222 170.769 277.551 171.016 273.409C171.333 268.198 171.776 263.809 172.386 261.652C172.761 260.017 172.977 258.35 173.031 256.673C173.031 256.517 173.031 256.356 173.061 256.194C173.061 255.69 173.111 255.146 173.131 254.587C173.131 254.431 173.131 254.274 173.131 254.083C173.227 250.838 173.192 246.988 173.086 242.997C173.086 242.78 173.086 242.558 173.086 242.336C173 239.343 172.874 236.289 172.733 233.387C172.295 224.316 171.726 216.646 171.726 216.646L152.513 152.95L157.69 140.19L172.059 131.382L198.625 115.332C211.583 104.673 220.114 105.953 223.368 107.123C223.684 107.23 223.993 107.357 224.295 107.501C224.395 107.551 224.476 107.591 224.551 107.637C224.655 107.686 224.754 107.743 224.849 107.808V107.808C223.958 108.237 223.184 108.875 222.592 109.667C221.926 110.569 221.451 111.598 221.197 112.691C221.027 113.368 220.908 114.057 220.84 114.752C220.774 115.483 220.749 116.239 220.749 117C220.785 118.668 220.928 120.333 221.177 121.983C221.177 122.014 221.177 122.054 221.177 122.094C221.343 123.273 221.55 124.427 221.751 125.511C221.749 125.529 221.749 125.548 221.751 125.566C221.983 126.831 222.215 128 222.371 129.008C222.401 129.19 222.426 129.356 222.451 129.512C222.562 130.178 222.615 130.853 222.607 131.528C222.664 133.158 222.883 134.779 223.262 136.365C223.393 137.031 223.544 137.741 223.71 138.482C223.937 139.49 224.184 140.588 224.451 141.707C224.597 142.322 224.753 142.957 224.914 143.587C224.974 143.839 225.04 144.091 225.1 144.348L225.201 144.746C226.274 149.014 227.437 153.262 228.152 155.832C228.575 157.344 228.842 158.276 228.842 158.276C228.842 158.276 236.427 146.006 242.48 139.021C242.571 138.92 242.652 138.825 242.737 138.734C243.337 138.044 243.926 137.414 244.49 136.859C245.724 135.63 246.832 134.753 247.723 134.43C247.913 134.361 248.097 134.275 248.272 134.173C250.75 132.767 254.749 127.663 258.491 122.316C258.858 121.812 259.216 121.263 259.579 120.744C260.41 119.544 261.215 118.34 261.976 117.186C262.56 116.304 263.119 115.447 263.648 114.631C266.166 110.711 267.939 107.788 267.939 107.788L271.434 107.632L272.043 107.601H272.451L288.32 106.866C288.32 106.866 289.005 106.981 290.133 107.208C290.194 107.208 290.254 107.208 290.32 107.249C295.95 108.367 311.593 111.91 312.55 116.823C313.718 122.84 338.95 130.868 338.95 130.868C339.282 134.899 345.462 137.555 345.462 137.555C345.462 137.555 354.819 162.298 352.316 171.993C349.843 181.568 358.752 205.252 358.989 205.918L357.282 208.074L315.043 261.536Z" fill="#E8F5FF"/>
<path opacity="0.1" d="M266.367 84.8238C266.367 84.8238 281.814 80.4396 285.324 89.465C288.834 98.4903 296.686 134.939 296.686 134.939C296.686 134.939 276.299 138.784 270.955 134.939C267.821 132.657 263.942 131.642 260.092 132.097L248.564 139.953L245.16 138.946C245.16 138.946 263.603 111.512 267.611 102.189C271.62 92.8665 272.975 88.699 266.367 84.8238Z" fill="black"/>
<path d="M265.698 82.808C265.698 82.808 281.154 78.4239 284.679 87.4492C288.205 96.4745 296.041 132.924 296.041 132.924C296.041 132.924 275.659 136.769 270.311 132.924C267.179 130.642 263.301 129.626 259.453 130.081L247.915 137.938L244.51 136.93C244.51 136.93 262.953 109.496 266.962 100.173C270.971 90.8507 272.305 86.6933 265.698 82.808Z" fill="#E8F5FF"/>
<path opacity="0.1" d="M162.016 228.216C162.016 228.216 173.544 231.058 175.72 237.579C177.896 244.1 167.199 244.266 167.199 244.266C167.199 244.266 160.682 232.731 162.016 228.216Z" fill="black"/>
<path opacity="0.1" d="M204.955 276.362C204.955 276.362 176.722 334.207 183.239 339.725C189.756 345.243 204.955 276.362 204.955 276.362Z" fill="black"/>
<path opacity="0.1" d="M243.885 233.734C243.885 233.734 266.443 289.922 261.93 298.6C257.418 307.278 271.62 298.6 271.62 298.6L243.885 233.734Z" fill="black"/>
<path d="M275.297 289.237C275.297 289.237 199.108 292.916 221.333 316.656C243.558 340.396 289.167 317.663 289.167 317.663L275.297 289.237Z" fill="#FFB0B1"/>
<path opacity="0.1" d="M264.272 63.5428C264.279 69.0105 263.206 74.4256 261.115 79.477C260.415 79.5576 259.715 79.608 259.04 79.6382C258.033 77.426 258.571 74.8711 258.592 72.4371C258.612 70.0031 257.715 67.1408 255.373 66.4857C250.705 65.1705 247.482 73.9035 242.878 72.3262C239.353 71.1269 240.275 65.7752 238.245 62.6861C236.639 60.2421 233.42 59.5517 230.917 58.0197C225.594 54.7492 225.755 49.5185 223.282 44.5699C220.694 39.3845 215.224 40.9164 210.475 43.9753C206.869 46.3034 203.757 49.4227 199.899 51.2772C196.56 52.8897 192.808 53.4743 189.106 53.56C186.827 53.6483 184.548 53.4073 182.338 52.8444C184.937 43.0651 191.003 34.5658 199.404 28.9314C207.804 23.297 217.966 20.9121 227.994 22.2216C238.022 23.5311 247.232 28.4455 253.906 36.0484C260.58 43.6512 264.263 53.4235 264.267 63.5428H264.272Z" fill="black"/>
<path d="M210.49 42.64C206.879 44.9681 203.772 48.0824 199.914 49.9469C196.575 51.5545 192.823 52.139 189.122 52.2247C184.589 52.3255 179.709 51.5293 176.612 48.2537C173.766 45.2302 173.086 40.5789 174.29 36.613C175.493 32.6471 178.379 29.3565 181.769 26.9729C185.158 24.5893 189.091 22.9415 191.338 19.5299C192.526 17.7258 193.1 15.5992 194.087 13.6793C197.245 7.53641 204.346 4.21048 211.211 3.79726C218.075 3.38404 224.879 5.42999 231.416 7.64727C237.953 9.86455 244.541 12.3036 251.44 12.7621C254.512 12.9536 257.705 12.7621 260.556 13.9262C264.388 15.4833 266.901 19.2074 268.614 22.9969C270.533 27.2702 271.726 31.9366 271.525 36.6029C271.102 46.5656 264.524 56.3418 267.415 65.8862C268.181 68.431 269.616 71.0414 268.851 73.5862C267.732 77.3001 262.943 78.1467 259.07 78.3231C258.063 76.1109 258.602 73.5509 258.622 71.122C258.642 68.6931 257.746 65.8257 255.409 65.1706C250.735 63.8654 247.512 72.5834 242.919 71.0111C239.419 69.8067 240.325 64.4601 238.291 61.371C236.684 58.9219 233.461 58.2366 230.963 56.7046C225.639 53.4341 225.801 48.2034 223.328 43.2548C220.719 38.0442 215.245 39.5761 210.49 42.64Z" fill="#575A89"/>
<path d="M136.613 234.399L132.771 235.74C132.771 235.74 134.282 258.477 129.245 264.998C124.209 271.519 145.784 287.73 145.784 287.73C145.784 287.73 175.357 287.564 176.193 285.21C177.029 282.857 174.682 243.082 174.682 243.082C174.682 243.082 158.808 236.894 160.143 227.032C160.143 227.032 155.298 250.268 148.116 249.265C140.934 248.263 132.781 242.261 136.613 234.399Z" fill="#E8F5FF"/>
<path opacity="0.1" d="M149.431 256.3C155.03 256.3 159.569 252.147 159.569 247.023C159.569 241.899 155.03 237.746 149.431 237.746C143.832 237.746 139.293 241.899 139.293 247.023C139.293 252.147 143.832 256.3 149.431 256.3Z" fill="black"/>
<path d="M160.516 235.07C160.516 235.07 158.501 173.55 140.965 187.257C123.429 200.964 123.257 217.357 126.596 222.199C129.935 227.042 140.642 251.286 140.642 251.286C142.317 252.257 144.198 252.818 146.131 252.921C148.064 253.025 149.994 252.669 151.763 251.882C153.532 251.095 155.09 249.901 156.308 248.396C157.526 246.89 158.371 245.118 158.773 243.223L160.516 235.07Z" fill="#FFB0B1"/>
<path opacity="0.1" d="M269.908 79.2402C269.826 78.9699 269.669 78.7286 269.455 78.5448C268.588 77.7536 266.725 77.4764 263.915 77.7183L264.031 79.0487C267.778 78.7262 268.518 79.472 268.614 79.598V79.724L268.729 79.8903C269.197 80.5185 269.528 81.2375 269.701 82.0011C269.874 82.7648 269.887 83.5562 269.737 84.3248C268.916 88.4318 263.875 91.7023 263.824 91.7376L263.703 91.8082L263.628 91.9241C261.452 95.1542 249.148 104.27 245.93 106.629L245.648 106.306C244.208 107.556 231.547 118.647 230.862 122.895C230.419 125.561 227.417 126.594 226.329 126.882C225.181 126.01 221.454 123.042 219.515 119.716C217.697 116.586 225.015 110.479 225.659 108.095L224.652 107.062C224.546 107.445 215.149 116.234 217.763 120.724C219.858 124.327 223.685 127.411 225.025 128.429C224.597 132.319 221.933 155.162 217.838 160.574C212.752 167.302 208.476 201.206 208.949 213.043C209.367 223.56 206.622 243.425 197.456 251.956C195.869 253.498 193.955 254.661 191.856 255.359C189.757 256.057 187.528 256.272 185.334 255.988H185.223H185.113C184.982 255.988 171.686 257.348 160.516 247.925C151.375 240.23 146.197 227.672 145.12 210.589H144.898L144.807 205.615C147.286 205.228 149.518 203.895 151.035 201.896C152.551 199.897 153.234 197.387 152.941 194.894C152.647 192.402 151.399 190.12 149.459 188.529C147.519 186.937 145.038 186.16 142.538 186.361C140.038 186.561 137.712 187.724 136.05 189.604C134.389 191.484 133.52 193.935 133.626 196.443C133.733 198.951 134.807 201.319 136.623 203.051C138.438 204.783 140.854 205.744 143.362 205.731H143.473L143.563 210.675L143.12 210.705C144.228 228.342 149.667 241.389 159.236 249.447C166.509 255.477 175.799 258.519 185.228 257.958C185.897 258.031 186.57 258.068 187.243 258.069C191.565 258.091 195.723 256.418 198.826 253.408C208.481 244.413 211.417 223.817 210.959 212.942C210.455 200.399 214.942 167.715 219.445 161.763C223.856 155.923 226.531 133.165 226.999 128.756C228.596 128.308 232.207 126.892 232.821 123.213C233.264 120.552 241.72 112.353 246.922 107.813L246.766 107.631C249.566 105.586 258.274 99.1353 262.59 94.993C263.93 93.708 265.259 92.4229 266.649 91.1984C268.322 89.7168 270.447 87.3635 271.006 84.5818C271.196 83.6636 271.197 82.7161 271.009 81.7975C270.82 80.8789 270.445 80.0086 269.908 79.2402V79.2402Z" fill="black"/>
<path d="M224.854 128.111C224.642 127.965 219.626 124.372 217.113 120.048C214.504 115.558 223.902 106.775 224.003 106.392L225.01 107.425C224.37 109.803 217.053 115.916 218.871 119.04C221.162 122.986 225.987 126.438 226.037 126.473L224.854 128.111Z" fill="#353146"/>
<path d="M245.276 107.606L244.49 106.523C244.651 106.407 260.47 94.9578 262.963 91.2539L263.044 91.143L263.159 91.0675C263.21 91.0322 268.251 87.7667 269.072 83.6547C269.223 82.8869 269.212 82.0959 269.038 81.3329C268.865 80.5699 268.533 79.8518 268.065 79.2252L267.949 79.0538V78.9329C267.848 78.8019 267.108 78.0611 263.361 78.3836L263.245 77.0482C266.06 76.8063 267.919 77.0835 268.785 77.8746C269.001 78.0603 269.159 78.3031 269.243 78.5751C269.788 79.3413 270.17 80.211 270.365 81.1305C270.561 82.0501 270.567 83 270.381 83.9218C269.822 86.7085 267.702 89.0618 266.025 90.5383C264.64 91.7629 263.305 93.058 261.971 94.3329C256.909 99.1857 245.83 107.208 245.276 107.606Z" fill="#E8F5FF"/>
<path d="M144.158 203.861L142.823 203.885L142.972 212.002L144.306 211.978L144.158 203.861Z" fill="#E8F5FF"/>
<path d="M142.712 205.091C148.094 205.091 152.457 200.725 152.457 195.34C152.457 189.955 148.094 185.589 142.712 185.589C137.33 185.589 132.967 189.955 132.967 195.34C132.967 200.725 137.33 205.091 142.712 205.091Z" fill="#587EEC"/>
<path d="M142.712 203.438C147.182 203.438 150.806 199.813 150.806 195.34C150.806 190.868 147.182 187.242 142.712 187.242C138.243 187.242 134.619 190.868 134.619 195.34C134.619 199.813 138.243 203.438 142.712 203.438Z" fill="#E8F5FF"/>
<path d="M186.608 257.419C185.935 257.42 185.263 257.385 184.594 257.313C175.166 257.869 165.877 254.827 158.602 248.802C149.033 240.739 143.604 227.707 142.486 210.055L144.5 209.929C145.578 227.012 150.755 239.575 159.901 247.265C171.071 256.663 184.362 255.328 184.493 255.328H184.604H184.715C186.909 255.611 189.139 255.395 191.238 254.697C193.338 253.999 195.253 252.837 196.842 251.296C206.003 242.765 208.748 222.9 208.33 212.383C207.826 200.536 212.102 166.631 217.193 159.909C221.65 154.018 224.415 127.466 224.446 127.199L224.521 126.443L225.267 126.312C225.312 126.312 229.663 125.486 230.207 122.23C230.912 117.987 243.553 106.896 244.988 105.641L246.303 107.153C241.08 111.688 232.624 119.892 232.201 122.558C231.587 126.247 227.976 127.658 226.385 128.101C225.881 132.515 223.227 155.268 218.83 161.108C214.328 167.06 209.84 199.744 210.344 212.287C210.777 223.162 207.871 243.762 198.217 252.752C195.108 255.77 190.939 257.446 186.608 257.419Z" fill="#353146"/>
<g opacity="0.1">
<path opacity="0.1" d="M268.563 51.63C269.389 48.5762 270.386 45.5022 271.081 42.4081C270.25 45.5173 269.248 48.5762 268.563 51.63Z" fill="black"/>
<path opacity="0.1" d="M260.138 75.627C259.13 73.4148 259.669 70.8549 259.689 68.4259C259.71 65.997 258.813 63.1548 256.476 62.4745C251.803 61.1694 248.579 69.8924 243.986 68.3151C240.461 67.1107 241.393 61.764 239.358 58.6749C237.751 56.2258 234.533 55.5405 232.035 54.0086C226.707 50.7381 226.868 45.5073 224.4 40.5587C221.807 35.3683 216.342 36.9002 211.588 39.9641C207.977 42.2922 204.87 45.4115 201.012 47.271C197.673 48.8786 193.921 49.4631 190.219 49.5488C185.712 49.6546 180.807 48.8534 177.709 45.5778C175.322 43.0582 174.461 39.3644 174.954 35.9024C174.869 36.1393 174.793 36.3761 174.718 36.613C173.509 40.5789 174.214 45.2402 177.039 48.2537C180.137 51.5292 185.042 52.3254 189.549 52.2246C193.256 52.139 197.003 51.5544 200.347 49.9469C204.215 48.0824 207.322 44.9681 210.923 42.6399C215.678 39.5761 221.147 38.0441 223.736 43.2346C226.203 48.1832 226.047 53.4139 231.371 56.6844C233.889 58.1962 237.087 58.9017 238.698 61.3508C240.713 64.4499 239.821 69.7865 243.327 70.9909C247.915 72.5632 251.138 63.8452 255.811 65.1504C258.148 65.8055 259.05 68.6779 259.025 71.1018C258.999 73.5257 258.476 76.0907 259.473 78.3029C263.346 78.1265 268.135 77.295 269.258 73.566C269.413 73.0308 269.484 72.475 269.47 71.9181C267.833 74.7452 263.623 75.4708 260.138 75.627Z" fill="black"/>
</g>
<path opacity="0.1" d="M351.158 199.795L357.005 205.983C357.005 205.983 361.684 240.084 364.021 243.274C366.357 246.464 371.877 259.152 366.695 268.682C366.695 268.682 365.023 273.867 366.025 276.039C367.027 278.211 358.511 289.081 358.511 289.081C358.511 289.081 347.315 299.109 344.973 300.616C342.632 302.122 330.273 314.156 326.098 314.322C321.923 314.489 320.558 319.674 320.558 319.674L296.998 320.511C296.998 320.511 283.984 319.83 281.154 321.67C281.154 321.67 282.665 301.775 268.125 288.733L286.669 282.046C286.669 282.046 293.689 279.022 295.86 275.863C297.225 273.926 299.163 272.465 301.4 271.685C301.4 271.685 306.577 268.006 306.743 266.001C306.909 263.995 313.074 261.536 313.074 261.536L309.584 231.729L311.422 182.243C311.422 182.243 317.269 140.78 329.633 143.123C341.997 145.466 351.158 199.795 351.158 199.795Z" fill="black"/>
<path d="M353.172 199.795L359.019 205.983C359.019 205.983 363.698 240.084 366.035 243.274C368.372 246.464 373.891 259.152 368.709 268.682C368.709 268.682 367.042 273.867 368.044 276.039C369.047 278.211 360.525 289.081 360.525 289.081C360.525 289.081 349.33 299.109 346.988 300.616C344.646 302.122 332.287 314.156 328.112 314.322C323.937 314.489 322.572 319.674 322.572 319.674L299.012 320.511C299.012 320.511 285.989 319.83 283.168 321.67C283.168 321.67 284.679 301.775 270.14 288.733L288.683 282.046C288.683 282.046 295.704 279.022 297.874 275.863C299.24 273.926 301.177 272.465 303.414 271.685C303.414 271.685 308.591 268.006 308.758 266.001C308.924 263.995 315.088 261.536 315.088 261.536L311.598 231.729L313.436 182.243C313.436 182.243 319.283 140.78 331.647 143.123C344.011 145.466 353.172 199.795 353.172 199.795Z" fill="#E8F5FF"/>
<path opacity="0.1" d="M331.436 249.784C331.436 249.784 348.645 245.249 353.157 250.792C357.67 256.336 331.436 249.784 331.436 249.784Z" fill="black"/>
<path opacity="0.1" d="M327.427 257.389C333.274 261.486 351.319 261.652 351.319 261.652L327.427 257.389Z" fill="black"/>
<path opacity="0.1" d="M336.281 277.868C336.784 278.035 348.685 290.744 353.681 286.899C358.677 283.054 336.281 277.868 336.281 277.868Z" fill="black"/>
<path opacity="0.1" d="M176.007 171.207C176.007 171.207 179.502 195.285 177.78 205.091C176.057 214.898 182.343 227.047 182.343 227.047L176.007 171.207Z" fill="black"/>
<path d="M98.63 180.998C94.601 184.158 91.6599 191.636 89.5295 199.855C85.8128 214.192 84.599 230.817 84.599 230.817C84.599 230.817 52.5181 223.459 54.8549 220.118C56.3255 218.017 54.3513 202.183 52.7044 190.704C51.7224 183.921 50.8461 178.655 50.8461 178.655C50.8461 178.655 109.659 172.301 98.63 180.998Z" fill="#FFB0B1"/>
<path opacity="0.1" d="M98.63 180.328C94.601 183.493 91.6599 190.966 89.5295 199.185C83.1378 201.127 76.3399 201.302 69.8567 199.692C63.3736 198.082 57.4467 194.746 52.7044 190.039C51.7224 183.251 50.8461 177.985 50.8461 177.985C50.8461 177.985 109.659 171.635 98.63 180.328Z" fill="black"/>
<path d="M115.874 162.318C115.877 171.083 112.782 179.566 107.135 186.267C101.488 192.967 93.6544 197.453 85.02 198.93C76.3856 200.407 67.5074 198.78 59.9567 194.337C52.4059 189.894 46.6695 182.921 43.7626 174.653C40.8558 166.385 40.9659 157.354 44.0736 149.159C47.1813 140.965 53.0861 134.134 60.743 129.877C68.3998 125.619 77.3151 124.21 85.9109 125.897C94.5067 127.584 102.229 132.26 107.71 139.097C112.993 145.682 115.873 153.873 115.874 162.318V162.318Z" fill="#FFB0B1"/>
<path opacity="0.1" d="M145.125 394.407H134.548L133.657 375.716L132.725 356.37C132.725 356.37 135.128 356.012 138.955 355.478L140.501 355.271H140.627C141.463 359.197 142.289 363.229 143.085 367.255C144.409 374.403 145.099 381.654 145.145 388.924C145.145 389.428 145.145 389.932 145.145 390.405C145.175 391.751 145.145 393.096 145.125 394.407Z" fill="black"/>
<path d="M143.095 394.407H10.4603C11.0345 393.101 11.4172 392.31 11.4172 392.31C11.4172 392.31 22.0286 345.858 27.4224 326.205C27.4241 326.188 27.4241 326.171 27.4224 326.155C28.0963 323.485 28.91 320.852 29.86 318.268V318.268C29.9213 318.092 30.0007 317.924 30.0967 317.764C32.7659 313.42 36.11 308.739 31.4313 302.052C26.7526 295.365 28.4095 265.94 28.4095 265.94C28.4095 265.94 34.0904 240.86 40.1037 227.486C41.0163 225.414 42.3115 223.533 43.9212 221.942C44.4445 221.43 45.0033 220.955 45.5932 220.521V220.521C46.0417 220.184 46.5092 219.873 46.9933 219.589L47.089 219.529C49.6151 218.096 52.4202 217.224 55.3132 216.974C57.3682 216.759 59.4426 216.816 61.4826 217.145C71.2328 218.576 79.039 220.97 85.2436 223.696C102.06 231.089 107.151 240.996 107.252 241.203L107.292 241.288C107.967 242.865 117.838 265.925 121.394 276.684C122.316 279.486 122.819 281.456 122.618 281.995C121.61 284.666 130.303 318.102 130.303 318.102C130.303 318.102 134.332 334.228 138.361 353.13C138.537 353.916 138.703 354.702 138.865 355.498C139.585 358.93 140.3 362.427 140.99 365.92C142.327 373.117 143.016 380.419 143.05 387.74C143.124 390.021 143.139 392.243 143.095 394.407Z" fill="#EB5569"/>
<path opacity="0.1" d="M54.5225 205.474C54.5225 205.474 45.3716 201.947 45.4824 207.298C45.5932 212.65 47.7135 215.21 47.0437 215.991C46.3739 216.772 47.3761 221.454 47.3761 221.454C47.3761 221.454 59.7401 221.454 65.421 224.014C71.1019 226.574 92.0426 231.703 94.7169 233.266C97.3911 234.828 107.308 241.832 107.308 241.832L108.199 228.569C108.199 228.569 97.9501 220.098 81.1341 215.754C64.318 211.41 54.5225 205.474 54.5225 205.474Z" fill="black"/>
<path d="M54.5225 204.804C54.5225 204.804 45.3716 201.276 45.4824 206.628C45.5932 211.98 47.7135 214.54 47.0437 215.321C46.3739 216.102 47.3761 220.783 47.3761 220.783C47.3761 220.783 59.7401 220.783 65.421 223.348C71.1019 225.913 92.0426 231.038 94.7169 232.595C97.3911 234.153 107.307 241.162 107.307 241.162L108.209 227.939C108.209 227.939 97.9602 219.468 81.1441 215.124C64.3281 210.78 54.5225 204.804 54.5225 204.804Z" fill="#EB5569"/>
<path opacity="0.1" d="M82.1464 236.723C82.1464 236.723 99.6322 255.665 98.7408 260.911C97.8494 266.157 82.1464 236.723 82.1464 236.723Z" fill="black"/>
<path opacity="0.1" d="M53.7418 305.151C53.7418 305.151 40.9246 316.968 37.1474 317.638C33.3702 318.309 40.0432 320.536 44.3845 318.757C48.7257 316.978 57.9824 312.297 57.9824 312.297L53.7418 305.151Z" fill="black"/>
<path d="M148.302 394.407H118.412C114.232 390.778 110.279 387.417 107.761 385.396C103.732 382.161 100.826 377.399 98.9724 373.569C98.5543 372.697 98.1917 371.881 97.8845 371.14C97.3344 369.864 96.8503 368.561 96.4341 367.235L118.568 354.082C119.792 355.123 120.941 356.248 122.008 357.449L122.275 357.756C123.504 359.207 124.587 360.855 124.682 362.206C124.793 363.778 129.165 369.86 133.632 375.701C138.164 381.642 142.808 387.321 143.115 387.704C143.115 387.704 143.881 388.748 145.13 390.35C146.011 391.509 147.099 392.9 148.302 394.407Z" fill="#FFB0B1"/>
<path opacity="0.1" d="M107.71 139.097C106.648 141.495 105.696 143.985 105.555 146.656C105.157 154.366 105.802 171.605 97.2703 175.475C93.0448 177.38 88.5223 173.198 83.8889 173.097C80.5549 173.026 77.4979 175.143 75.4633 177.788C73.4286 180.434 72.1645 183.573 70.6889 186.567C69.3457 189.284 67.7984 191.895 66.0606 194.378C65.5411 195.137 64.969 195.86 64.3483 196.539C59.1461 194.343 54.5137 190.987 50.804 186.728C47.0943 182.469 44.4051 177.419 42.9415 171.962C41.4779 166.506 41.2784 160.787 42.3582 155.241C43.438 149.696 45.7687 144.47 49.1726 139.963C52.5764 135.455 56.9637 131.784 62.0002 129.23C67.0366 126.676 72.5892 125.306 78.2349 125.225C83.8806 125.143 89.4704 126.352 94.5785 128.76C99.6865 131.167 104.178 134.71 107.71 139.117V139.097Z" fill="black"/>
<path d="M104.885 145.295C104.482 153.005 105.132 170.244 96.5954 174.11C92.37 176.014 87.8474 171.837 83.2141 171.736C79.8801 171.66 76.8281 173.782 74.7884 176.423C72.7487 179.063 71.4947 182.208 70.014 185.206C68.6704 187.923 67.1232 190.534 65.3857 193.017C64.3483 194.488 63.2 195.965 61.6035 196.791C58.8235 198.243 55.4542 197.426 52.4728 196.494C48.6049 195.274 44.7942 193.9 41.0405 192.372C41.1266 191.805 41.1704 191.232 41.1714 190.659C41.0606 190.87 40.9397 191.067 40.8189 191.278L40.5822 191.692C40.1541 192.447 39.7361 193.203 39.3533 193.979C39.2073 194.277 39.0663 194.584 38.9403 194.892C38.4338 196.035 38.1158 197.254 37.9986 198.5C37.7417 201.861 39.3987 205.051 40.8692 208.074C46.525 219.77 50.0201 233.447 45.7645 245.718C43.9212 251.054 40.7282 255.796 38.3964 260.951C34.3203 270.082 33.1204 280.238 34.9567 290.068C36.12 296.176 38.4518 302.223 37.8777 308.416C36.8705 319.074 27.6843 327.006 18.4831 332.459C13.5123 335.392 7.42851 338.002 2.15051 335.684C5.51473 331.753 6.38097 326.316 7.10619 321.186C9.09048 307.193 11.0798 293.194 13.0742 279.188C13.8699 273.615 14.6639 268.042 15.4563 262.468C16.937 251.997 18.4378 241.409 17.5111 230.872C16.8362 223.106 14.9325 214.862 18.2967 207.832C20.0745 204.108 23.2423 201.024 24.2295 197.013C25.0403 193.753 24.2848 190.286 24.8187 186.965C25.1109 185.454 25.6056 183.989 26.2893 182.611C27.1599 180.74 28.2965 179.006 29.6636 177.461C28.3139 177.068 27.0548 176.528 26.2893 175.4C28.4549 173.989 28.7822 170.809 27.8002 168.42C26.8181 166.032 24.8539 164.212 23.0862 162.328C21.3185 160.443 19.6162 158.246 19.3946 155.676C18.9666 150.783 23.8517 146.993 24.7129 142.166C25.5842 137.252 22.1394 132.475 22.4164 127.501C22.7387 121.489 28.2585 117.12 33.7077 114.586C41.9308 110.777 51.0146 109.212 60.0372 110.05C67.3801 110.746 74.4862 113.018 81.8089 113.9C86.2257 114.404 90.703 114.455 95.0895 115.231C99.4761 116.007 103.873 117.644 106.96 120.865C115.099 129.356 105.348 136.345 104.885 145.295Z" fill="#575A89"/>
<path opacity="0.1" d="M98.0759 373.574C95.5074 372.46 90.8338 373.126 82.811 370.682C74.7882 368.238 73.2421 357.191 73.2421 357.191V357.156C73.1464 356.904 72.4011 355.261 67.3547 349.507C61.7796 343.152 49.7278 311.057 49.7278 311.057C49.7278 311.057 39.0409 299.572 39.3783 295.339C39.7158 291.106 37.4797 279.844 37.7013 267.245C37.9229 254.647 61.7595 246.292 61.7595 246.292C107.655 238.154 96.847 291.096 95.6232 295.108C94.3994 299.119 100.75 309.953 100.75 309.953C99.8537 314.67 104.427 321.972 104.427 321.972C104.427 321.972 105.535 328.432 105.761 330.886C105.774 331 105.799 331.111 105.837 331.219C106.572 333.532 112.565 335.628 115.003 336.903C117.566 338.244 125.811 349.945 125.811 349.945C127.588 358.537 100.634 374.703 98.0759 373.574Z" fill="black"/>
<path d="M99.4106 371.558C96.8472 370.44 92.1685 371.11 84.1508 368.661C76.1331 366.212 74.5819 355.176 74.5819 355.176V355.14C74.4912 354.883 73.7409 353.246 68.6945 347.491C63.1194 341.136 51.0676 309.036 51.0676 309.036C51.0676 309.036 40.3807 297.557 40.7131 293.324C41.0455 289.091 38.8195 277.828 39.0411 265.24C39.2627 252.652 63.0841 244.302 63.0841 244.302C108.98 236.163 98.1717 289.106 96.9479 293.117C95.7241 297.128 102.075 307.963 102.075 307.963C101.178 312.679 105.751 319.981 105.751 319.981C105.751 319.981 106.859 326.442 107.091 328.896C107.099 329.009 107.123 329.121 107.161 329.228C107.897 331.542 113.89 333.638 116.332 334.913C118.891 336.248 127.14 347.954 127.14 347.954C128.928 356.531 101.974 372.697 99.4106 371.558Z" fill="#EB5569"/>
<path opacity="0.1" d="M63.9907 271.942C63.9907 271.942 84.0401 293.107 89.2727 293.107C94.5054 293.107 63.9907 271.942 63.9907 271.942Z" fill="black"/>
<path d="M99.4105 371.558C96.8471 370.44 92.1684 371.11 84.1507 368.661C76.133 366.212 74.5818 355.176 74.5818 355.176V355.141C79.895 351.613 93.3519 341.65 98.6551 338.007C102.387 335.452 105.434 331.698 107.217 329.208C107.952 331.521 113.945 333.618 116.388 334.893C118.946 336.228 127.196 347.934 127.196 347.934C128.928 356.531 101.974 372.697 99.4105 371.558Z" fill="#FF748E"/>
<g opacity="0.1">
<path opacity="0.1" d="M26.3195 175.455C26.3446 175.495 26.3799 175.531 26.4101 175.571C26.5612 175.379 26.7173 175.188 26.8785 175.007C26.7068 175.174 26.5197 175.324 26.3195 175.455V175.455Z" fill="black"/>
<path opacity="0.1" d="M38.0036 198.555C38.2151 195.758 39.7109 193.294 41.111 190.835C40.1944 190.482 39.2778 190.124 38.3712 189.752C38.4576 189.186 38.5014 188.615 38.5022 188.043C37.087 190.563 35.5459 193.042 35.3294 195.879C35.0725 199.246 36.7294 202.43 38.2 205.454C43.8608 217.145 47.3509 230.822 43.0952 243.097C41.2469 248.429 38.059 253.176 35.7272 258.331C31.6525 267.46 30.4544 277.615 32.2925 287.443C33.4458 293.556 35.7826 299.598 35.2085 305.791C34.2012 316.449 25.0201 324.381 15.8139 329.828C12.0518 332.056 7.65514 334.097 3.44987 333.95C3.06061 334.577 2.62635 335.175 2.15051 335.739C7.43354 338.073 13.5123 335.447 18.4831 332.504C27.6944 327.062 36.8956 319.15 37.9029 308.472C38.477 302.279 36.1402 296.236 34.9818 290.124C33.1432 280.297 34.3377 270.143 38.4065 261.012C40.7232 255.862 43.9464 251.11 45.7745 245.778C50.0302 233.503 46.535 219.826 40.8793 208.135C39.4137 205.091 37.7468 201.921 38.0036 198.555Z" fill="black"/>
<path opacity="0.1" d="M106.95 120.925C106.454 120.417 105.923 119.945 105.358 119.514C111.462 127.436 102.649 134.168 102.211 142.695C101.818 150.405 102.463 167.649 93.9261 171.509C89.7057 173.419 85.1781 169.237 80.5498 169.136C77.2108 169.065 74.1588 171.187 72.1191 173.827C70.0794 176.468 68.8254 179.612 67.3498 182.606C66.0036 185.322 64.4548 187.933 62.7164 190.417C61.7092 191.893 60.5307 193.365 58.9292 194.196C56.1592 195.642 52.79 194.831 49.8035 193.894C46.8992 192.98 44.0219 191.972 41.1713 190.87C41.1655 191.395 41.1217 191.919 41.0404 192.437C44.7975 193.969 48.6099 195.343 52.4777 196.559C55.4592 197.497 58.8284 198.308 61.6034 196.862C63.1999 196.03 64.3582 194.554 65.3907 193.077C67.1303 190.597 68.6776 187.988 70.019 185.272C71.4997 182.278 72.7487 179.129 74.7934 176.488C76.8381 173.847 79.885 171.731 83.219 171.802C87.8524 171.902 92.38 176.085 96.6003 174.175C105.137 170.315 104.487 153.071 104.885 145.36C105.348 136.396 115.099 129.411 106.95 120.925Z" fill="black"/>
</g>
<path opacity="0.1" d="M40.5872 191.697C40.1591 192.453 39.7411 193.208 39.3584 193.984C39.2123 194.282 39.0713 194.589 38.9454 194.897C36.3064 192.236 29.8801 185.912 26.2943 183.951C27.1662 182.081 28.3026 180.347 29.6686 178.801C29.6686 178.801 38.2151 183.321 40.5872 191.697Z" fill="black"/>
<path d="M40.8239 191.284C38.8446 182.319 29.6686 177.466 29.6686 177.466C28.3015 179.011 27.1649 180.745 26.2943 182.616C30.0765 184.687 37.0467 191.631 39.3584 193.985L40.8239 191.284Z" fill="#EB5569"/>
<defs>
<linearGradient id="paint0_linear_21_202" x1="270.563" y1="48.0723" x2="270.563" y2="38.8101" gradientUnits="userSpaceOnUse">
<stop stop-color="#808080" stop-opacity="0.25"/>
<stop offset="0.54" stop-color="#808080" stop-opacity="0.12"/>
<stop offset="1" stop-color="#808080" stop-opacity="0.1"/>
</linearGradient>
<linearGradient id="paint1_linear_21_202" x1="230952" y1="331838" x2="230952" y2="23136.5" gradientUnits="userSpaceOnUse">
<stop stop-color="#808080" stop-opacity="0.25"/>
<stop offset="0.54" stop-color="#808080" stop-opacity="0.12"/>
<stop offset="1" stop-color="#808080" stop-opacity="0.1"/>
</linearGradient>
</defs>
</svg>
