<svg width="52" height="80" viewBox="0 0 52 80" fill="none" xmlns="http://www.w3.org/2000/svg">
<path d="M-1.58732e-05 59.6094C7.94503 60.3312 12.5098 60.9952 15.3122 63.1894C18.6058 65.7588 19.3859 70.4647 20.2526 79.8765C21.1482 70.1183 21.9572 65.4412 25.5686 62.9295C28.371 60.9663 32.9069 60.3312 40.5052 59.6383C32.5891 58.9165 27.9954 58.2525 25.2219 56.0872C21.8994 53.4889 21.1193 48.8119 20.2526 39.3712C19.4437 48.0612 18.7214 52.7094 16.0345 55.3943C13.3477 58.0793 8.6673 58.8299 -1.58732e-05 59.6094Z" fill="white"/>
<path d="M29.8476 0C33.3504 6.47045 35.2857 9.69715 37.237 9.69715C39.1884 9.69715 41.1237 6.47045 44.6105 0C41.1237 6.47045 39.4603 9.88494 40.436 11.6775C41.4116 13.4702 45.0104 13.658 52 13.658C44.7545 13.658 41.1557 13.8457 40.34 15.8261C39.5722 17.67 41.2357 21.0674 44.6105 27.3159C41.1077 20.8454 39.1724 17.6188 37.2211 17.6188C35.2697 17.6188 33.3344 20.8454 29.8316 27.3159C33.5423 20.4357 35.1738 17.0212 33.7982 15.314C32.5826 13.8116 28.9999 13.658 22.4421 13.658C29.8316 13.658 33.4303 13.4531 34.1501 11.3532C34.8059 9.4752 33.1424 6.09486 29.8476 0Z" fill="white"/>
</svg>
