<svg width="60" height="60" viewBox="0 0 60 60" fill="none" xmlns="http://www.w3.org/2000/svg">
<path fill-rule="evenodd" clip-rule="evenodd" d="M30 2C14.536 2 2 14.536 2 30C2 45.464 14.536 58 30 58C45.464 58 58 45.464 58 30C58 14.536 45.464 2 30 2ZM0 30C0 13.4314 13.4314 0 30 0C46.5686 0 60 13.4314 60 30C60 46.5686 46.5686 60 30 60C13.4314 60 0 46.5686 0 30Z" fill="#E8E8E8"/>
<path fill-rule="evenodd" clip-rule="evenodd" d="M33.2133 28.4848L28.9707 24.2422L27.5565 25.6564L31.7991 29.899L27.5565 34.1417L28.9707 35.5559L33.2133 31.3133L34.6276 29.899L33.2133 28.4848Z" fill="black"/>
</svg>
