<svg width="60" height="60" viewBox="0 0 60 60" fill="none" xmlns="http://www.w3.org/2000/svg">
<path fill-rule="evenodd" clip-rule="evenodd" d="M30 2C14.536 2 2 14.536 2 30C2 45.464 14.536 58 30 58C45.464 58 58 45.464 58 30C58 14.536 45.464 2 30 2ZM0 30C0 13.4314 13.4314 0 30 0C46.5686 0 60 13.4314 60 30C60 46.5686 46.5686 60 30 60C13.4314 60 0 46.5686 0 30Z" fill="#E8E8E8"/>
<path fill-rule="evenodd" clip-rule="evenodd" d="M26.7574 31.4134L31 35.656L32.4142 34.2418L28.1716 29.9992L32.4142 25.7566L31 24.3423L26.7574 28.585L25.3431 29.9992L26.7574 31.4134Z" fill="black"/>
</svg>
