<svg width="600" height="1483" viewBox="0 0 600 1483" fill="none" xmlns="http://www.w3.org/2000/svg">
<g opacity="0.5">
<path opacity="0.0344828" d="M416 344.722C408.954 336.325 398.353 331.147 384.487 329.068C370.613 326.987 353.533 328.019 333.648 331.994C293.88 339.942 243.104 359.614 184.758 389.296C68.0799 448.653 -78.6718 547.939 -227.822 673.09C-376.972 798.242 -500.232 925.524 -578.948 1030.12C-618.311 1082.43 -646.501 1129.02 -661.235 1166.8C-668.602 1185.69 -672.585 1202.33 -672.945 1216.36C-673.304 1230.37 -670.046 1241.71 -663 1250.11C-655.955 1258.51 -645.354 1263.68 -631.488 1265.76C-617.614 1267.85 -600.533 1266.81 -580.649 1262.84C-540.881 1254.89 -490.105 1235.22 -431.759 1205.54C-315.081 1146.18 -168.329 1046.89 -19.1789 921.741C129.971 796.59 253.231 669.308 331.947 564.71C371.311 512.404 399.501 465.816 414.234 428.032C421.601 409.14 425.584 392.498 425.944 378.474C426.303 364.457 423.045 353.118 416 344.722Z" stroke="#2B2C3B" stroke-width="2"/>
<path opacity="0.0689655" d="M374.492 293.795C366.742 286.044 355.73 281.81 341.735 280.947C327.732 280.083 310.807 282.6 291.345 288.293C252.421 299.677 203.553 323.699 148.015 358.354C36.9546 427.654 -100.585 539.352 -238.26 677.027C-375.935 814.702 -487.633 952.242 -556.933 1063.3C-591.588 1118.84 -615.61 1167.71 -626.994 1206.63C-632.687 1226.09 -635.204 1243.02 -634.34 1257.02C-633.477 1271.02 -629.243 1282.03 -621.492 1289.78C-613.742 1297.53 -602.73 1301.76 -588.735 1302.63C-574.732 1303.49 -557.807 1300.97 -538.345 1295.28C-499.421 1283.9 -450.553 1259.87 -395.015 1225.22C-283.955 1155.92 -146.415 1044.22 -8.73977 906.547C128.935 768.872 240.633 631.332 309.933 520.272C344.588 464.734 368.61 415.866 379.994 376.942C385.687 357.48 388.204 340.555 387.34 326.552C386.477 312.557 382.243 301.545 374.492 293.795Z" stroke="#2B2C3B" stroke-width="2"/>
<path opacity="0.103448" d="M329.194 246.656C320.798 239.61 309.459 236.352 295.442 236.712C281.417 237.071 264.776 241.054 245.884 248.421C208.1 263.155 161.512 291.345 109.206 330.708C4.60764 409.424 -122.674 532.684 -247.826 681.834C-372.977 830.984 -472.263 977.736 -531.62 1094.41C-561.302 1152.76 -580.974 1203.54 -588.922 1243.3C-592.897 1263.19 -593.929 1280.27 -591.848 1294.14C-589.769 1308.01 -584.591 1318.61 -576.195 1325.66C-567.798 1332.7 -556.459 1335.96 -542.442 1335.6C-528.418 1335.24 -511.776 1331.26 -492.884 1323.89C-455.1 1309.16 -408.512 1280.97 -356.206 1241.6C-251.608 1162.89 -124.326 1039.63 0.825389 890.477C125.977 741.327 225.262 594.575 284.619 477.897C314.302 419.551 333.974 368.775 341.922 329.007C345.897 309.123 346.929 292.042 344.848 278.168C342.768 264.302 337.591 253.701 329.194 246.656Z" stroke="#2B2C3B" stroke-width="2"/>
<path opacity="0.137931" d="M280.451 203.622C271.473 197.335 259.893 195.078 245.961 196.658C232.021 198.239 215.79 203.657 197.612 212.642C161.256 230.613 117.302 262.756 68.6258 306.528C-28.7138 394.061 -144.768 527.945 -256.444 687.436C-368.121 846.926 -454.238 1001.77 -503.2 1123.18C-527.684 1183.89 -542.856 1236.19 -547.308 1276.5C-549.534 1296.65 -549.074 1313.76 -545.792 1327.4C-542.512 1341.03 -536.43 1351.14 -527.451 1357.43C-518.472 1363.71 -506.892 1365.97 -492.961 1364.39C-479.021 1362.81 -462.789 1357.39 -444.611 1348.41C-408.256 1330.44 -364.301 1298.29 -315.625 1254.52C-218.286 1166.99 -102.231 1033.1 9.44487 873.613C121.121 714.123 207.238 559.277 256.2 437.869C280.684 377.158 295.856 324.861 300.308 284.551C302.535 264.396 302.075 247.291 298.792 233.651C295.512 220.019 289.43 209.909 280.451 203.622Z" stroke="#2B2C3B" stroke-width="2"/>
<path opacity="0.172414" d="M228.634 164.981C219.141 159.5 207.409 158.261 193.668 161.049C179.918 163.839 164.221 170.651 146.895 181.186C112.244 202.257 71.2588 238.109 26.5831 285.957C-62.7571 381.641 -166.701 525.13 -264.052 693.747C-361.403 862.363 -433.696 1024.13 -471.891 1149.34C-490.99 1211.95 -501.546 1265.37 -502.468 1305.92C-502.93 1326.19 -500.98 1343.19 -496.522 1356.49C-492.066 1369.79 -485.126 1379.33 -475.634 1384.81C-466.141 1390.29 -454.409 1391.53 -440.668 1388.74C-426.918 1385.95 -411.221 1379.14 -393.895 1368.6C-359.244 1347.53 -318.259 1311.68 -273.583 1263.83C-184.243 1168.15 -80.2986 1024.66 17.0521 856.042C114.403 687.426 186.696 525.663 224.891 400.45C243.991 337.836 254.546 284.415 255.469 243.871C255.93 223.599 253.981 206.599 249.522 193.296C245.066 180.002 238.126 170.461 228.634 164.981Z" stroke="#2B2C3B" stroke-width="2"/>
<path opacity="0.206897" d="M174.136 130.98C164.202 126.348 152.406 126.136 138.961 130.111C125.507 134.088 110.463 142.242 94.1214 154.248C61.4387 178.259 23.7337 217.546 -16.6017 269.106C-97.2626 372.212 -188.305 524.215 -270.59 700.674C-352.874 877.134 -410.794 1044.58 -437.93 1172.65C-451.5 1236.69 -457.36 1290.82 -454.745 1331.3C-453.437 1351.53 -450.014 1368.3 -444.413 1381.16C-438.815 1394.01 -431.07 1402.91 -421.136 1407.55C-411.202 1412.18 -399.406 1412.39 -385.96 1408.42C-372.507 1404.44 -357.463 1396.28 -341.121 1384.28C-308.438 1360.27 -270.734 1320.98 -230.398 1269.42C-149.737 1166.31 -58.6947 1014.31 23.5897 837.852C105.874 661.393 163.794 493.945 190.93 365.879C204.5 301.839 210.36 247.702 207.745 207.231C206.437 186.996 203.014 170.23 197.413 157.367C191.815 144.512 184.07 135.612 174.136 130.98Z" stroke="#2B2C3B" stroke-width="2"/>
<path opacity="0.241379" d="M117.374 101.836C107.074 98.0867 95.3043 98.9032 82.2562 104.035C69.2002 109.17 54.9245 118.604 39.6913 131.989C9.22559 158.756 -24.9117 201.18 -60.6 256.059C-131.968 365.803 -209.416 525.163 -276.008 708.122C-342.599 891.082 -385.705 1062.94 -401.576 1192.88C-409.513 1257.86 -410.632 1312.31 -404.5 1352.39C-401.434 1372.44 -396.562 1388.84 -389.861 1401.17C-383.165 1413.49 -374.673 1421.68 -364.373 1425.43C-354.074 1429.17 -342.304 1428.36 -329.256 1423.23C-316.2 1418.09 -301.924 1408.66 -286.691 1395.27C-256.225 1368.5 -222.088 1326.08 -186.4 1271.2C-115.032 1161.46 -37.5838 1002.1 29.008 819.139C95.5999 636.179 138.705 464.32 154.577 334.377C162.513 269.398 163.632 214.956 157.5 174.867C154.434 154.823 149.562 138.42 142.862 126.094C136.165 113.775 127.674 105.584 117.374 101.836Z" stroke="#2B2C3B" stroke-width="2"/>
<path opacity="0.275862" d="M58.778 77.733C48.1905 74.8961 36.5369 76.7353 23.9856 82.9849C11.4269 89.2382 -1.97221 99.8808 -15.981 114.542C-43.9978 143.863 -74.3077 189.101 -105.077 246.881C-166.608 362.428 -229.873 527.931 -280.265 715.998C-330.658 904.065 -358.621 1079.03 -363.106 1209.86C-365.349 1275.28 -361.719 1329.62 -352.116 1369.02C-347.315 1388.72 -341.032 1404.63 -333.283 1416.33C-325.538 1428.02 -316.365 1435.44 -305.778 1438.27C-295.19 1441.11 -283.537 1439.27 -270.985 1433.02C-258.427 1426.77 -245.028 1416.13 -231.019 1401.46C-203.002 1372.14 -172.692 1326.91 -141.923 1269.12C-80.3913 1153.58 -17.127 988.075 33.2655 800.008C83.658 611.941 111.621 436.979 116.106 306.147C118.35 240.723 114.719 186.391 105.117 146.99C100.315 127.289 94.0326 111.372 86.283 99.6774C78.5382 87.9895 69.3654 80.5699 58.778 77.733Z" stroke="#2B2C3B" stroke-width="2"/>
<path opacity="0.310345" d="M-1.20526 58.8043C-11.9997 56.901 -23.4487 59.7489 -35.4074 67.0686C-47.3734 74.3927 -59.7939 86.1626 -72.4716 101.989C-97.8263 133.64 -124.078 181.348 -149.695 241.59C-200.921 362.059 -249.52 532.446 -283.33 724.19C-317.139 915.934 -329.747 1092.67 -322.813 1223.39C-319.345 1288.76 -310.994 1342.57 -297.993 1380.99C-291.493 1400.19 -283.847 1415.5 -275.108 1426.48C-266.374 1437.45 -256.589 1444.04 -245.795 1445.94C-235 1447.84 -223.551 1445 -211.593 1437.68C-199.627 1430.35 -187.206 1418.58 -174.528 1402.76C-149.174 1371.1 -122.922 1323.4 -97.3054 1263.15C-46.0789 1142.69 2.52023 972.298 36.3298 780.555C70.1394 588.811 82.747 412.078 75.8127 281.353C72.3452 215.982 63.9935 162.173 50.9933 123.759C44.493 104.551 36.847 89.243 28.1077 78.2681C19.3737 67.2996 9.58914 60.7077 -1.20526 58.8043Z" stroke="#2B2C3B" stroke-width="2"/>
<path opacity="0.344828" d="M-62.1193 45.1541C-73.0385 44.1988 -84.1957 48.0337 -95.4711 56.3679C-106.753 64.707 -118.101 77.5146 -129.351 94.3854C-151.85 128.126 -173.844 177.94 -194.113 240.186C-234.645 364.662 -268.209 538.636 -285.178 732.597C-302.147 926.557 -299.304 1103.72 -281.003 1233.34C-271.851 1298.16 -258.841 1351.04 -242.542 1388.17C-234.393 1406.74 -225.442 1421.32 -215.779 1431.49C-206.122 1441.66 -195.8 1447.37 -184.881 1448.33C-173.962 1449.28 -162.805 1445.45 -151.529 1437.12C-140.247 1428.78 -128.9 1415.97 -117.65 1399.1C-95.1502 1365.36 -73.1563 1315.54 -52.8877 1253.3C-12.3557 1128.82 21.2082 954.847 38.1776 760.887C55.147 566.926 52.3033 389.766 34.002 260.143C24.8502 195.324 11.8406 142.447 -4.45822 105.312C-12.6078 86.744 -21.5589 72.1605 -31.2215 61.989C-40.8783 51.8235 -51.2001 46.1094 -62.1193 45.1541Z" stroke="#2B2C3B" stroke-width="2"/>
<path opacity="0.37931" d="M-123.5 36.8416C-134.461 36.8416 -145.242 41.6343 -155.748 50.9194C-166.26 60.2101 -176.448 73.958 -186.185 91.7451C-205.658 127.318 -223.227 178.86 -237.993 242.635C-267.522 370.17 -285.796 546.407 -285.796 741.109C-285.796 935.81 -267.522 1112.05 -237.993 1239.58C-223.227 1303.36 -205.658 1354.9 -186.185 1390.47C-176.448 1408.26 -166.26 1422.01 -155.748 1431.3C-145.242 1440.58 -134.461 1445.38 -123.5 1445.38C-112.539 1445.38 -101.759 1440.58 -91.2527 1431.3C-80.7404 1422.01 -70.5523 1408.26 -60.8154 1390.47C-41.3421 1354.9 -23.7735 1303.36 -9.00713 1239.58C20.5219 1112.05 38.7952 935.81 38.7952 741.109C38.7952 546.407 20.5219 370.17 -9.00713 242.635C-23.7735 178.86 -41.3421 127.318 -60.8154 91.7451C-70.5523 73.958 -80.7404 60.2101 -91.2527 50.9194C-101.759 41.6343 -112.539 36.8416 -123.5 36.8416Z" stroke="#2B2C3B" stroke-width="2"/>
<path opacity="0.413793" d="M-184.881 33.8889C-195.801 34.8442 -206.122 40.5583 -215.779 50.7238C-225.442 60.8953 -234.393 75.4788 -242.542 94.0469C-258.841 131.182 -271.851 184.058 -281.003 248.878C-299.304 378.501 -302.148 555.661 -285.178 749.621C-268.209 943.582 -234.645 1117.56 -194.113 1242.03C-173.844 1304.28 -151.851 1354.09 -129.351 1387.83C-118.101 1404.7 -106.753 1417.51 -95.4712 1425.85C-84.1959 1434.18 -73.0387 1438.02 -62.1195 1437.06C-51.2003 1436.11 -40.8785 1430.39 -31.2217 1420.23C-21.5591 1410.06 -12.608 1395.47 -4.4584 1376.91C11.8404 1339.77 24.8501 1286.89 34.0018 1222.07C52.3031 1092.45 55.1468 915.292 38.1774 721.331C21.2081 527.371 -12.3559 353.396 -52.8879 228.921C-73.1564 166.675 -95.1503 116.861 -117.65 83.1202C-128.9 66.2494 -140.248 53.4417 -151.53 45.1027C-162.805 36.7685 -173.962 32.9336 -184.881 33.8889Z" stroke="#2B2C3B" stroke-width="2"/>
<path opacity="0.448276" d="M-245.795 36.2771C-256.59 38.1805 -266.374 44.7724 -275.108 55.7408C-283.848 66.7158 -291.494 82.024 -297.994 101.232C-310.994 139.646 -319.346 193.455 -322.813 258.826C-329.748 389.551 -317.14 566.284 -283.33 758.027C-249.521 949.771 -200.922 1120.16 -149.695 1240.63C-124.079 1300.87 -97.8269 1348.58 -72.4722 1380.23C-59.7945 1396.05 -47.3739 1407.82 -35.408 1415.15C-23.4492 1422.47 -12.0002 1425.32 -1.2058 1423.41C9.5886 1421.51 19.3731 1414.92 28.1072 1403.95C36.8465 1392.97 44.4925 1377.67 50.9928 1358.46C63.993 1320.04 72.3447 1266.24 75.8122 1200.86C82.7464 1070.14 70.1388 893.406 36.3293 701.663C2.51968 509.919 -46.0794 339.532 -97.306 219.063C-122.922 158.82 -149.174 111.113 -174.529 79.4615C-187.207 63.6354 -199.627 51.8655 -211.593 44.5414C-223.552 37.2217 -235.001 34.3738 -245.795 36.2771Z" stroke="#2B2C3B" stroke-width="2"/>
<path opacity="0.482759" d="M-305.778 43.9467C-316.366 46.7836 -325.538 54.2032 -333.283 65.8912C-341.033 77.586 -347.315 93.5024 -352.117 113.203C-361.72 152.605 -365.35 206.937 -363.107 272.361C-358.621 403.193 -330.658 578.155 -280.266 766.222C-229.873 954.289 -166.609 1119.79 -105.078 1235.34C-74.3082 1293.12 -43.9983 1338.36 -15.9815 1367.68C-1.97268 1382.34 11.4265 1392.98 23.9852 1399.24C36.5364 1405.48 48.1901 1407.32 58.7775 1404.49C69.3649 1401.65 78.5377 1394.23 86.2826 1382.54C94.0321 1370.85 100.315 1354.93 105.116 1335.23C114.719 1295.83 118.349 1241.5 116.106 1176.07C111.62 1045.24 83.6575 870.279 33.265 682.212C-17.1274 494.144 -80.3918 328.641 -141.923 213.095C-172.693 155.315 -203.002 110.076 -231.019 80.7555C-245.028 66.0945 -258.427 55.4519 -270.986 49.1986C-283.537 42.949 -295.191 41.1098 -305.778 43.9467Z" stroke="#2B2C3B" stroke-width="2"/>
<path opacity="0.517241" d="M-364.374 56.79C-374.674 60.5389 -383.165 68.7297 -389.862 81.0482C-396.563 93.374 -401.434 109.777 -404.5 129.822C-410.633 169.91 -409.513 224.352 -401.577 289.332C-385.706 419.275 -342.6 591.134 -276.008 774.093C-209.416 957.053 -131.968 1116.41 -60.6006 1226.16C-24.9124 1281.03 9.22495 1323.46 39.6906 1350.23C54.9239 1363.61 69.1996 1373.05 82.2556 1378.18C95.3037 1383.31 107.073 1384.13 117.373 1380.38C127.673 1376.63 136.164 1368.44 142.861 1356.12C149.562 1343.8 154.433 1327.39 157.5 1307.35C163.632 1267.26 162.513 1212.82 154.576 1147.84C138.705 1017.9 95.5992 846.036 29.0074 663.077C-37.5845 480.117 -115.033 320.758 -186.4 211.014C-222.089 156.135 -256.226 113.711 -286.692 86.943C-301.925 73.5588 -316.2 64.1245 -329.256 58.9896C-342.305 53.8577 -354.074 53.0412 -364.374 56.79Z" stroke="#2B2C3B" stroke-width="2"/>
<path opacity="0.551724" d="M-421.136 74.6723C-431.07 79.3046 -438.815 88.2043 -444.413 101.06C-450.014 113.922 -453.437 130.688 -454.745 150.924C-457.36 191.394 -451.5 245.531 -437.93 309.571C-410.794 437.637 -352.874 605.085 -270.59 781.544C-188.305 958.004 -97.2628 1110.01 -16.6019 1213.11C23.7336 1264.67 61.4385 1303.96 94.1212 1327.97C110.463 1339.98 125.507 1348.13 138.96 1352.11C152.406 1356.08 164.202 1355.87 174.136 1351.24C184.07 1346.61 191.815 1337.71 197.413 1324.85C203.014 1311.99 206.437 1295.22 207.745 1274.99C210.36 1234.52 204.5 1180.38 190.93 1116.34C163.794 988.274 105.874 820.826 23.5896 644.366C-58.6949 467.907 -149.737 315.904 -230.398 212.798C-270.734 161.238 -308.439 121.951 -341.121 97.9401C-357.463 85.9345 -372.507 77.7803 -385.961 73.8028C-399.406 69.8276 -411.202 70.04 -421.136 74.6723Z" stroke="#2B2C3B" stroke-width="2"/>
<path opacity="0.586207" d="M-475.634 97.4103C-485.126 102.891 -492.066 112.432 -496.522 125.726C-500.981 139.028 -502.93 156.028 -502.469 176.301C-501.546 216.845 -490.991 270.265 -471.891 332.879C-433.697 458.092 -361.403 619.855 -264.052 788.471C-166.701 957.088 -62.7574 1100.58 26.5828 1196.26C71.2585 1244.11 112.244 1279.96 146.895 1301.03C164.221 1311.57 179.918 1318.38 193.667 1321.17C207.409 1323.96 219.141 1322.72 228.634 1317.24C238.126 1311.76 245.066 1302.22 249.522 1288.92C253.98 1275.62 255.929 1258.62 255.468 1238.35C254.546 1197.8 243.99 1144.38 224.891 1081.77C186.696 956.555 114.403 794.792 17.0518 626.176C-80.2989 457.559 -184.243 314.07 -273.583 218.386C-318.259 170.538 -359.244 134.686 -393.895 113.616C-411.221 103.08 -426.918 96.2681 -440.668 93.4783C-454.409 90.6901 -466.141 91.9298 -475.634 97.4103Z" stroke="#2B2C3B" stroke-width="2"/>
<path opacity="0.62069" d="M-527.451 124.792C-536.43 131.079 -542.512 141.188 -545.792 154.82C-549.074 168.46 -549.534 185.566 -547.308 205.721C-542.856 246.03 -527.684 298.327 -503.2 359.039C-454.238 480.446 -368.121 635.293 -256.444 794.783C-144.768 954.273 -28.7139 1088.16 68.6258 1175.69C117.302 1219.46 161.256 1251.61 197.612 1269.58C215.79 1278.56 232.021 1283.98 245.961 1285.56C259.893 1287.14 271.473 1284.88 280.451 1278.6C289.43 1272.31 295.512 1262.2 298.792 1248.57C302.075 1234.93 302.535 1217.82 300.308 1197.67C295.856 1157.36 280.684 1105.06 256.2 1044.35C207.238 922.942 121.121 768.095 9.44484 608.605C-102.231 449.115 -218.286 315.231 -315.625 227.698C-364.301 183.925 -408.256 151.782 -444.611 133.812C-462.79 124.826 -479.021 119.408 -492.961 117.827C-506.892 116.247 -518.472 118.505 -527.451 124.792Z" stroke="#2B2C3B" stroke-width="2"/>
<path opacity="0.655172" d="M-576.194 156.561C-584.591 163.607 -589.769 174.208 -591.848 188.074C-593.929 201.948 -592.897 219.028 -588.922 238.913C-580.974 278.681 -561.302 329.457 -531.62 387.803C-472.262 504.481 -372.977 651.233 -247.826 800.383C-122.674 949.533 4.60772 1072.79 109.206 1151.51C161.512 1190.87 208.1 1219.06 245.884 1233.8C264.776 1241.16 281.417 1245.15 295.442 1245.51C309.459 1245.87 320.798 1242.61 329.194 1235.56C337.591 1228.52 342.769 1217.91 344.848 1204.05C346.929 1190.17 345.897 1173.09 341.922 1153.21C333.974 1113.44 314.302 1062.67 284.62 1004.32C225.262 887.642 125.977 740.89 0.825505 591.74C-124.326 442.59 -251.608 319.33 -356.206 240.614C-408.512 201.25 -455.1 173.06 -492.884 158.327C-511.776 150.96 -528.417 146.977 -542.442 146.617C-556.459 146.258 -567.798 149.516 -576.194 156.561Z" stroke="#2B2C3B" stroke-width="2"/>
<path opacity="0.689655" d="M-621.492 192.439C-629.243 200.189 -633.477 211.201 -634.34 225.196C-635.204 239.199 -632.687 256.124 -626.995 275.586C-615.61 314.51 -591.588 363.378 -556.933 418.916C-487.633 529.977 -375.935 667.517 -238.26 805.191C-100.586 942.866 36.9545 1054.56 148.015 1123.86C203.553 1158.52 252.421 1182.54 291.345 1193.93C310.807 1199.62 327.732 1202.14 341.735 1201.27C355.73 1200.41 366.742 1196.17 374.492 1188.42C382.243 1180.67 386.477 1169.66 387.34 1155.67C388.204 1141.66 385.687 1124.74 379.994 1105.28C368.61 1066.35 344.588 1017.48 309.933 961.947C240.632 850.886 128.935 713.346 -8.73987 575.671C-146.415 437.996 -283.955 326.299 -395.015 256.998C-450.553 222.343 -499.421 198.321 -538.345 186.937C-557.807 181.244 -574.733 178.727 -588.735 179.591C-602.73 180.454 -613.742 184.688 -621.492 192.439Z" stroke="#2B2C3B" stroke-width="2"/>
<path opacity="0.724138" d="M-663.001 232.106C-670.046 240.503 -673.304 251.842 -672.945 265.858C-672.585 279.883 -668.602 296.524 -661.235 315.417C-646.502 353.2 -618.312 399.789 -578.948 452.094C-500.232 556.693 -376.972 683.974 -227.822 809.126C-78.6721 934.278 68.0797 1033.56 184.758 1092.92C243.104 1122.6 293.88 1142.27 333.648 1150.22C353.532 1154.2 370.613 1155.23 384.487 1153.15C398.353 1151.07 408.954 1145.89 416 1137.49C423.045 1129.1 426.303 1117.76 425.944 1103.74C425.584 1089.72 421.601 1073.08 414.234 1054.18C399.501 1016.4 371.31 969.812 331.947 917.506C253.231 812.908 129.971 685.627 -19.179 560.475C-168.329 435.323 -315.081 336.038 -431.759 276.681C-490.105 246.998 -540.881 227.327 -580.649 219.378C-600.534 215.404 -617.614 214.371 -631.488 216.452C-645.354 218.532 -655.955 223.709 -663.001 232.106Z" stroke="#2B2C3B" stroke-width="2"/>
<path opacity="0.758621" d="M-700.402 275.218C-706.689 284.196 -708.947 295.776 -707.367 309.708C-705.786 323.648 -700.368 339.879 -691.382 358.057C-673.412 394.413 -641.269 438.367 -597.497 487.043C-509.963 584.383 -376.079 700.437 -216.589 812.113C-57.0989 923.79 97.7476 1009.91 219.155 1058.87C279.866 1083.35 332.164 1098.52 372.473 1102.98C392.628 1105.2 409.733 1104.74 423.374 1101.46C437.006 1098.18 447.115 1092.1 453.402 1083.12C459.689 1074.14 461.946 1062.56 460.366 1048.63C458.786 1034.69 453.367 1018.46 444.382 1000.28C426.412 963.925 394.268 919.97 350.496 871.294C262.963 773.955 129.079 657.9 -30.4114 546.224C-189.902 434.548 -344.748 348.431 -466.156 299.469C-526.867 274.984 -579.164 259.813 -619.473 255.361C-639.629 253.134 -656.734 253.594 -670.374 256.877C-684.006 260.157 -694.115 266.239 -700.402 275.218Z" stroke="#2B2C3B" stroke-width="2"/>
<path opacity="0.793103" d="M-733.414 321.405C-738.894 330.897 -740.134 342.63 -737.346 356.371C-734.556 370.12 -727.744 385.817 -717.208 403.143C-696.137 437.794 -660.286 478.779 -612.438 523.455C-516.754 612.795 -373.264 716.739 -204.648 814.09C-36.0315 911.441 125.731 983.735 250.944 1021.93C313.558 1041.03 366.979 1051.58 407.523 1052.51C427.795 1052.97 444.796 1051.02 458.098 1046.56C471.392 1042.1 480.933 1035.16 486.413 1025.67C491.894 1016.18 493.133 1004.45 490.345 990.706C487.555 976.957 480.743 961.259 470.208 943.933C449.137 909.282 413.285 868.297 365.437 823.621C269.754 734.281 126.264 630.337 -42.3525 532.986C-210.969 435.635 -372.732 363.342 -497.945 325.147C-560.559 306.048 -613.979 295.492 -654.523 294.57C-674.796 294.109 -691.796 296.058 -705.098 300.516C-718.392 304.972 -727.933 311.912 -733.414 321.405Z" stroke="#2B2C3B" stroke-width="2"/>
<path opacity="0.827586" d="M-761.783 370.27C-766.416 380.204 -766.628 392 -762.653 405.446C-758.675 418.9 -750.521 433.944 -738.516 450.285C-714.505 482.968 -675.218 520.673 -623.658 561.009C-520.552 641.669 -368.549 732.712 -192.089 814.996C-15.63 897.281 151.818 955.201 279.883 982.337C343.924 995.907 398.061 1001.77 438.531 999.151C458.767 997.844 475.532 994.421 488.395 988.82C501.251 983.222 510.15 975.477 514.783 965.543C519.415 955.609 519.627 943.813 515.652 930.367C511.675 916.913 503.52 901.87 491.515 885.528C467.504 852.845 428.217 815.14 376.657 774.805C273.551 694.144 121.548 603.101 -54.9114 520.817C-231.371 438.533 -398.819 380.613 -526.884 353.477C-590.925 339.907 -645.062 334.047 -685.532 336.662C-705.768 337.969 -722.533 341.393 -735.396 346.994C-748.251 352.591 -757.151 360.336 -761.783 370.27Z" stroke="#2B2C3B" stroke-width="2"/>
<path opacity="0.862069" d="M-785.294 421.403C-789.043 431.703 -788.227 443.472 -783.095 456.52C-777.96 469.576 -768.526 483.852 -755.141 499.085C-728.374 529.551 -685.95 563.688 -631.071 599.377C-521.327 670.744 -361.967 748.192 -179.008 814.784C3.95171 881.376 175.811 924.482 305.754 940.353C370.733 948.289 425.175 949.409 465.263 943.276C485.308 940.21 501.711 935.339 514.037 928.638C526.356 921.941 534.546 913.45 538.295 903.15C542.044 892.85 541.228 881.081 536.096 868.032C530.961 854.976 521.526 840.701 508.142 825.467C481.375 795.002 438.95 760.864 384.072 725.176C274.328 653.809 114.968 576.36 -67.9912 509.769C-250.951 443.177 -422.81 400.071 -552.753 384.2C-617.732 376.263 -672.174 375.144 -712.262 381.276C-732.307 384.343 -748.71 389.214 -761.036 395.915C-773.355 402.612 -781.546 411.103 -785.294 421.403Z" stroke="#2B2C3B" stroke-width="2"/>
<path opacity="0.896552" d="M-803.77 474.368C-806.607 484.955 -804.768 496.609 -798.518 509.16C-792.265 521.719 -781.622 535.118 -766.961 549.127C-737.64 577.144 -692.402 607.454 -634.622 638.223C-519.075 699.754 -353.572 763.019 -165.505 813.411C22.562 863.804 197.524 891.767 328.356 896.252C393.78 898.495 448.112 894.865 487.513 885.262C507.214 880.461 523.131 874.178 534.826 866.429C546.514 858.684 553.933 849.511 556.77 838.924C559.607 828.336 557.768 816.683 551.518 804.131C545.265 791.573 534.622 778.173 519.961 764.165C490.64 736.148 445.402 705.838 387.622 675.068C272.075 613.537 106.572 550.273 -81.4948 499.88C-269.562 449.488 -444.524 421.525 -575.356 417.039C-640.78 414.796 -695.112 418.426 -734.513 428.029C-754.214 432.831 -770.131 439.113 -781.826 446.863C-793.514 454.608 -800.933 463.781 -803.77 474.368Z" stroke="#2B2C3B" stroke-width="2"/>
<path opacity="0.931035" d="M-817.068 528.72C-818.971 539.514 -816.123 550.963 -808.804 562.922C-801.48 574.888 -789.71 587.308 -773.884 599.986C-742.232 625.341 -694.525 651.593 -634.282 677.209C-513.813 728.436 -343.426 777.035 -151.682 810.844C40.0612 844.654 216.795 857.261 347.519 850.327C412.89 846.86 466.699 838.508 505.113 825.508C524.321 819.007 539.629 811.361 550.604 802.622C561.573 793.888 568.165 784.104 570.068 773.309C571.971 762.515 569.123 751.066 561.804 739.107C554.48 727.141 542.71 714.72 526.884 702.043C495.232 676.688 447.525 650.436 387.282 624.82C266.813 573.593 96.4258 524.994 -95.3177 491.185C-287.061 457.375 -463.795 444.767 -594.519 451.702C-659.89 455.169 -713.699 463.521 -752.113 476.521C-771.321 483.021 -786.629 490.667 -797.604 499.407C-808.573 508.141 -815.165 517.925 -817.068 528.72Z" stroke="#2B2C3B" stroke-width="2"/>
<path opacity="0.965517" d="M-825.087 584.004C-826.042 594.924 -822.207 606.081 -813.873 617.356C-805.534 628.638 -792.727 639.986 -775.856 651.236C-742.115 673.735 -692.301 695.729 -630.055 715.998C-505.58 756.53 -331.605 790.094 -137.645 807.063C56.3161 824.033 233.476 821.189 363.099 802.888C427.918 793.736 480.795 780.726 517.93 764.427C536.498 756.278 551.082 747.327 561.253 737.664C571.419 728.007 577.133 717.685 578.088 706.766C579.043 695.847 575.208 684.69 566.874 673.415C558.535 662.132 545.727 650.785 528.857 639.535C495.116 617.035 445.302 595.041 383.056 574.773C258.58 534.241 84.606 500.677 -109.355 483.707C-303.315 466.738 -480.475 469.582 -610.098 487.883C-674.917 497.035 -727.794 510.044 -764.929 526.343C-783.497 534.493 -798.081 543.444 -808.252 553.107C-818.418 562.763 -824.132 573.085 -825.087 584.004Z" stroke="#2B2C3B" stroke-width="2"/>
<path d="M-827.768 639.753C-827.768 650.714 -822.975 661.495 -813.69 672.001C-804.399 682.513 -790.651 692.701 -772.864 702.438C-737.291 721.911 -685.75 739.48 -621.974 754.246C-494.44 783.775 -318.202 802.049 -123.5 802.049C71.2011 802.049 247.439 783.775 374.973 754.246C438.749 739.48 490.29 721.911 525.863 702.438C543.651 692.701 557.399 682.513 566.689 672.001C575.974 661.495 580.767 650.714 580.767 639.753C580.767 628.792 575.974 618.012 566.689 607.506C557.399 596.994 543.651 586.806 525.863 577.069C490.29 557.595 438.749 540.027 374.973 525.26C247.439 495.731 71.2011 477.458 -123.5 477.458C-318.202 477.458 -494.44 495.731 -621.974 525.26C-685.75 540.027 -737.291 557.595 -772.864 577.069C-790.651 586.806 -804.399 596.994 -813.69 607.506C-822.975 618.012 -827.768 628.792 -827.768 639.753Z" stroke="#2B2C3B" stroke-width="2"/>
</g>
</svg>
