<svg width="214" height="124" viewBox="0 0 214 124" fill="none" xmlns="http://www.w3.org/2000/svg">
<path d="M67.5312 21.0312V28.3438H43.7812V21.0312H67.5312ZM46.5625 2.5V48H37.1875V2.5H46.5625ZM74.2188 2.5V48H64.875V2.5H74.2188Z" fill="#FAF7C4"/>
<path d="M97.375 48.625C94.75 48.625 92.3958 48.2083 90.3125 47.375C88.2292 46.5208 86.4583 45.3438 85 43.8438C83.5625 42.3438 82.4583 40.6042 81.6875 38.625C80.9167 36.625 80.5312 34.5 80.5312 32.25V31C80.5312 28.4375 80.8958 26.0938 81.625 23.9688C82.3542 21.8438 83.3958 20 84.75 18.4375C86.125 16.875 87.7917 15.6771 89.75 14.8438C91.7083 13.9896 93.9167 13.5625 96.375 13.5625C98.7708 13.5625 100.896 13.9583 102.75 14.75C104.604 15.5417 106.156 16.6667 107.406 18.125C108.677 19.5833 109.635 21.3333 110.281 23.375C110.927 25.3958 111.25 27.6458 111.25 30.125V33.875H84.375V27.875H102.406V27.1875C102.406 25.9375 102.177 24.8229 101.719 23.8438C101.281 22.8438 100.615 22.0521 99.7188 21.4688C98.8229 20.8854 97.6771 20.5938 96.2812 20.5938C95.0938 20.5938 94.0729 20.8542 93.2188 21.375C92.3646 21.8958 91.6667 22.625 91.125 23.5625C90.6042 24.5 90.2083 25.6042 89.9375 26.875C89.6875 28.125 89.5625 29.5 89.5625 31V32.25C89.5625 33.6042 89.75 34.8542 90.125 36C90.5208 37.1458 91.0729 38.1354 91.7812 38.9688C92.5104 39.8021 93.3854 40.4479 94.4062 40.9062C95.4479 41.3646 96.625 41.5938 97.9375 41.5938C99.5625 41.5938 101.073 41.2812 102.469 40.6562C103.885 40.0104 105.104 39.0417 106.125 37.75L110.5 42.5C109.792 43.5208 108.823 44.5 107.594 45.4375C106.385 46.375 104.927 47.1458 103.219 47.75C101.51 48.3333 99.5625 48.625 97.375 48.625Z" fill="#FAF7C4"/>
<path d="M125.875 0V48H116.844V0H125.875Z" fill="#FAF7C4"/>
<path d="M142.812 0V48H133.781V0H142.812Z" fill="#FAF7C4"/>
<path d="M148.812 31.4375V30.7812C148.812 28.3021 149.167 26.0208 149.875 23.9375C150.583 21.8333 151.615 20.0104 152.969 18.4688C154.323 16.9271 155.99 15.7292 157.969 14.875C159.948 14 162.219 13.5625 164.781 13.5625C167.344 13.5625 169.625 14 171.625 14.875C173.625 15.7292 175.302 16.9271 176.656 18.4688C178.031 20.0104 179.073 21.8333 179.781 23.9375C180.49 26.0208 180.844 28.3021 180.844 30.7812V31.4375C180.844 33.8958 180.49 36.1771 179.781 38.2812C179.073 40.3646 178.031 42.1875 176.656 43.75C175.302 45.2917 173.635 46.4896 171.656 47.3438C169.677 48.1979 167.406 48.625 164.844 48.625C162.281 48.625 160 48.1979 158 47.3438C156.021 46.4896 154.344 45.2917 152.969 43.75C151.615 42.1875 150.583 40.3646 149.875 38.2812C149.167 36.1771 148.812 33.8958 148.812 31.4375ZM157.812 30.7812V31.4375C157.812 32.8542 157.938 34.1771 158.188 35.4062C158.438 36.6354 158.833 37.7188 159.375 38.6562C159.938 39.5729 160.667 40.2917 161.562 40.8125C162.458 41.3333 163.552 41.5938 164.844 41.5938C166.094 41.5938 167.167 41.3333 168.062 40.8125C168.958 40.2917 169.677 39.5729 170.219 38.6562C170.76 37.7188 171.156 36.6354 171.406 35.4062C171.677 34.1771 171.812 32.8542 171.812 31.4375V30.7812C171.812 29.4062 171.677 28.1146 171.406 26.9062C171.156 25.6771 170.75 24.5938 170.188 23.6562C169.646 22.6979 168.927 21.9479 168.031 21.4062C167.135 20.8646 166.052 20.5938 164.781 20.5938C163.51 20.5938 162.427 20.8646 161.531 21.4062C160.656 21.9479 159.938 22.6979 159.375 23.6562C158.833 24.5938 158.438 25.6771 158.188 26.9062C157.938 28.1146 157.812 29.4062 157.812 30.7812Z" fill="#FAF7C4"/>
<path d="M14.3438 115.781L23.4062 77.5H28.4688L29.625 83.875L19.9688 123H14.5312L14.3438 115.781ZM9.6875 77.5L17.1875 115.781L16.5625 123H10.5L0.40625 77.5H9.6875ZM37.5938 115.625L45 77.5H54.2812L44.2188 123H38.1562L37.5938 115.625ZM31.3125 77.5L40.4375 115.938L40.1875 123H34.75L25.0312 83.8438L26.2812 77.5H31.3125Z" fill="#FAF7C4"/>
<path d="M96.75 99.1875V101.344C96.75 104.802 96.2812 107.906 95.3438 110.656C94.4062 113.406 93.0833 115.75 91.375 117.688C89.6667 119.604 87.625 121.073 85.25 122.094C82.8958 123.115 80.2812 123.625 77.4062 123.625C74.5521 123.625 71.9375 123.115 69.5625 122.094C67.2083 121.073 65.1667 119.604 63.4375 117.688C61.7083 115.75 60.3646 113.406 59.4062 110.656C58.4688 107.906 58 104.802 58 101.344V99.1875C58 95.7083 58.4688 92.6042 59.4062 89.875C60.3438 87.125 61.6667 84.7812 63.375 82.8438C65.1042 80.9062 67.1458 79.4271 69.5 78.4062C71.875 77.3854 74.4896 76.875 77.3438 76.875C80.2188 76.875 82.8333 77.3854 85.1875 78.4062C87.5625 79.4271 89.6042 80.9062 91.3125 82.8438C93.0417 84.7812 94.375 87.125 95.3125 89.875C96.2708 92.6042 96.75 95.7083 96.75 99.1875ZM87.2812 101.344V99.125C87.2812 96.7083 87.0625 94.5833 86.625 92.75C86.1875 90.9167 85.5417 89.375 84.6875 88.125C83.8333 86.875 82.7917 85.9375 81.5625 85.3125C80.3333 84.6667 78.9271 84.3438 77.3438 84.3438C75.7604 84.3438 74.3542 84.6667 73.125 85.3125C71.9167 85.9375 70.8854 86.875 70.0312 88.125C69.1979 89.375 68.5625 90.9167 68.125 92.75C67.6875 94.5833 67.4688 96.7083 67.4688 99.125V101.344C67.4688 103.74 67.6875 105.865 68.125 107.719C68.5625 109.552 69.2083 111.104 70.0625 112.375C70.9167 113.625 71.9583 114.573 73.1875 115.219C74.4167 115.865 75.8229 116.188 77.4062 116.188C78.9896 116.188 80.3958 115.865 81.625 115.219C82.8542 114.573 83.8854 113.625 84.7188 112.375C85.5521 111.104 86.1875 109.552 86.625 107.719C87.0625 105.865 87.2812 103.74 87.2812 101.344Z" fill="#FAF7C4"/>
<path d="M103.5 77.5H120.469C123.948 77.5 126.938 78.0208 129.438 79.0625C131.958 80.1042 133.896 81.6458 135.25 83.6875C136.604 85.7292 137.281 88.2396 137.281 91.2188C137.281 93.6562 136.865 95.75 136.031 97.5C135.219 99.2292 134.062 100.677 132.562 101.844C131.083 102.99 129.344 103.906 127.344 104.594L124.375 106.156H109.625L109.562 98.8438H120.531C122.177 98.8438 123.542 98.5521 124.625 97.9688C125.708 97.3854 126.521 96.5729 127.062 95.5312C127.625 94.4896 127.906 93.2812 127.906 91.9062C127.906 90.4479 127.635 89.1875 127.094 88.125C126.552 87.0625 125.729 86.25 124.625 85.6875C123.521 85.125 122.135 84.8438 120.469 84.8438H112.875V123H103.5V77.5ZM128.938 123L118.562 102.719L128.469 102.656L138.969 122.562V123H128.938Z" fill="#FAF7C4"/>
<path d="M173.75 115.688V123H150.844V115.688H173.75ZM153.875 77.5V123H144.5V77.5H153.875Z" fill="#FAF7C4"/>
<path d="M193.094 123H183.188L183.25 115.688H193.094C195.552 115.688 197.625 115.135 199.312 114.031C201 112.906 202.271 111.271 203.125 109.125C204 106.979 204.438 104.385 204.438 101.344V99.125C204.438 96.7917 204.188 94.7396 203.688 92.9688C203.208 91.1979 202.49 89.7083 201.531 88.5C200.573 87.2917 199.396 86.3854 198 85.7812C196.604 85.1562 195 84.8438 193.188 84.8438H183V77.5H193.188C196.229 77.5 199.01 78.0208 201.531 79.0625C204.073 80.0833 206.271 81.5521 208.125 83.4688C209.979 85.3854 211.406 87.6771 212.406 90.3438C213.427 92.9896 213.938 95.9375 213.938 99.1875V101.344C213.938 104.573 213.427 107.521 212.406 110.188C211.406 112.854 209.979 115.146 208.125 117.062C206.292 118.958 204.094 120.427 201.531 121.469C198.99 122.49 196.177 123 193.094 123ZM188.5 77.5V123H179.125V77.5H188.5Z" fill="#FAF7C4"/>
</svg>
