<svg width="16" height="13" viewBox="0 0 16 13" fill="none" xmlns="http://www.w3.org/2000/svg">
<path d="M15.9997 10.4999C15.9997 10.8507 15.901 11.1759 15.743 11.462L10.6911 5.80966L15.6882 1.43765C15.8826 1.74614 15.9997 2.10851 15.9997 2.50009V10.4999ZM7.99969 6.83595L14.953 0.751998C14.6676 0.595793 14.3463 0.5 13.9997 0.5H1.99965C1.65262 0.5 1.33121 0.595793 1.04703 0.751998L7.99969 6.83595ZM9.93821 6.46788L8.32871 7.87705C8.23457 7.95906 8.11734 8.00002 7.99969 8.00002C7.88196 8.00002 7.76474 7.95906 7.67059 7.87705L6.06073 6.46782L0.944969 12.1924C1.25161 12.3848 1.61097 12.5 1.99962 12.5H13.9997C14.3883 12.5 14.7478 12.3848 15.0544 12.1924L9.93821 6.46788ZM0.311216 1.43762C0.116859 1.74611 -0.000335693 2.10847 -0.000335693 2.50009V10.5C-0.000335693 10.8507 0.097865 11.1759 0.256509 11.462L5.30778 5.8087L0.311216 1.43762Z" fill="#006775"/>
</svg>
