<svg width="14" height="14" viewBox="0 0 14 14" fill="none" xmlns="http://www.w3.org/2000/svg">
<path d="M11.7744 8.758C11.2684 8.25849 10.6368 8.25849 10.1341 8.758C9.75056 9.13828 9.36706 9.51855 8.99001 9.90527C8.88689 10.0116 8.79987 10.0342 8.67419 9.96328C8.42605 9.82793 8.16179 9.71836 7.92331 9.57011C6.81149 8.87079 5.88014 7.97167 5.05514 6.95975C4.64586 6.45702 4.2817 5.91883 4.02711 5.31297C3.97554 5.19051 3.98521 5.10994 4.08511 5.01004C4.46861 4.63943 4.84244 4.25916 5.21949 3.87888C5.74479 3.35037 5.74479 2.73161 5.21627 2.19987C4.91656 1.89694 4.61686 1.60046 4.31715 1.29753C4.00777 0.988151 3.70162 0.675553 3.38902 0.369399C2.88306 -0.123669 2.25142 -0.123669 1.74868 0.372622C1.36196 0.752897 0.991356 1.14284 0.598191 1.51667C0.23403 1.86149 0.0503378 2.28366 0.0116658 2.77673C-0.0495648 3.57918 0.147018 4.3365 0.424167 5.07449C0.991356 6.60204 1.85503 7.95878 2.9024 9.20273C4.31715 10.885 6.00582 12.2159 7.98132 13.1763C8.87077 13.6081 9.79246 13.9401 10.7947 13.9948C11.4844 14.0335 12.0838 13.8595 12.5639 13.3213C12.8927 12.9539 13.2633 12.6188 13.6113 12.2675C14.1269 11.7454 14.1302 11.1138 13.6178 10.5981C13.0055 9.98261 12.3899 9.37031 11.7744 8.758Z" fill="#006775"/>
</svg>
