<svg width="47" height="47" viewBox="0 0 47 47" fill="none" xmlns="http://www.w3.org/2000/svg">
<rect width="47" height="47" fill="#E1B838"/>
<path d="M13.6452 28.304H18.0298V46.3548C18.0298 46.7112 18.3186 47 18.675 47H26.1093C26.4657 47 26.7545 46.7112 26.7545 46.3548V28.389H31.795C32.1227 28.389 32.3984 28.1431 32.4359 27.8175L33.2014 21.1721C33.2225 20.9893 33.1645 20.8062 33.0422 20.669C32.9197 20.5317 32.7445 20.4532 32.5606 20.4532H26.7547V16.2875C26.7547 15.0317 27.4308 14.395 28.7645 14.395C28.9546 14.395 32.5606 14.395 32.5606 14.395C32.917 14.395 33.2058 14.1061 33.2058 13.7498V7.64994C33.2058 7.29355 32.917 7.00477 32.5606 7.00477H27.329C27.2921 7.00297 27.2102 7 27.0894 7C26.1817 7 23.0265 7.17819 20.5341 9.4711C17.7725 12.012 18.1564 15.0543 18.2481 15.5818V20.453H13.6452C13.2888 20.453 13 20.7418 13 21.0982V27.6587C13 28.0151 13.2888 28.304 13.6452 28.304Z" fill="black"/>
</svg>
