<svg width="47" height="47" viewBox="0 0 47 47" fill="none" xmlns="http://www.w3.org/2000/svg">
<rect width="47" height="47" fill="#E1B838"/>
<path d="M31.0838 3H14.9162C8.34559 3 3 8.34559 3 14.9162V31.0838C3 37.6544 8.34559 43 14.9162 43H31.0838C37.6544 43 43 37.6544 43 31.0838V14.9162C42.9999 8.34559 37.6543 3 31.0838 3ZM38.976 31.0838C38.976 35.4425 35.4425 38.976 31.0838 38.976H14.9162C10.5575 38.976 7.024 35.4425 7.024 31.0838V14.9162C7.024 10.5574 10.5575 7.024 14.9162 7.024H31.0838C35.4425 7.024 38.976 10.5574 38.976 14.9162V31.0838Z" fill="black"/>
<path d="M23.0002 12.6546C17.2957 12.6546 12.6548 17.2955 12.6548 22.9999C12.6548 28.7043 17.2957 33.3454 23.0002 33.3454C28.7047 33.3454 33.3456 28.7044 33.3456 22.9999C33.3456 17.2955 28.7047 12.6546 23.0002 12.6546ZM23.0002 29.3214C19.509 29.3214 16.6788 26.4913 16.6788 23C16.6788 19.5087 19.509 16.6786 23.0002 16.6786C26.4915 16.6786 29.3216 19.5087 29.3216 23C29.3216 26.4912 26.4914 29.3214 23.0002 29.3214Z" fill="black"/>
<path d="M33.3651 15.2113C34.7342 15.2113 35.844 14.1015 35.844 12.7324C35.844 11.3633 34.7342 10.2535 33.3651 10.2535C31.9961 10.2535 30.8862 11.3633 30.8862 12.7324C30.8862 14.1015 31.9961 15.2113 33.3651 15.2113Z" fill="black"/>
</svg>
