<svg width="47" height="47" viewBox="0 0 47 47" fill="none" xmlns="http://www.w3.org/2000/svg">
<rect width="47" height="47" fill="#E1B838"/>
<path d="M42.0936 7.61632C41.4653 7.95669 40.8192 8.24401 40.159 8.47731C40.9406 7.39771 41.5364 6.12745 41.9002 4.73744C41.9817 4.42589 41.8972 4.08485 41.6875 3.88103C41.4781 3.67711 41.1871 3.65269 40.9566 3.81958C39.5546 4.83515 38.0421 5.56504 36.4562 5.99176C34.8586 4.08514 32.6889 3 30.4457 3C25.7109 3 21.8588 7.70487 21.8588 13.4878C21.8588 13.9433 21.8824 14.3962 21.9291 14.8429C16.0536 14.2128 10.5913 10.6856 6.84035 5.06569C6.70667 4.8654 6.50074 4.75739 6.28988 4.77809C6.07894 4.79823 5.88933 4.94355 5.78277 5.16694C5.02199 6.76134 4.6198 8.58495 4.6198 10.4404C4.6198 12.9676 5.35847 15.3652 6.66339 17.2389C6.2666 17.071 5.8816 16.8613 5.5141 16.6121C5.31683 16.478 5.07605 16.4801 4.88003 16.6173C4.68394 16.7546 4.56097 17.007 4.55574 17.2829C4.5548 17.3294 4.5548 17.3759 4.5548 17.423C4.5548 21.1951 6.21699 24.5913 8.75831 26.4423C8.53995 26.4157 8.32183 26.377 8.10503 26.3265C7.88152 26.2743 7.65175 26.37 7.50105 26.5782C7.35011 26.7862 7.30011 27.0762 7.36972 27.341C8.31035 30.928 10.7321 33.5663 13.6599 34.3707C11.2316 36.2284 8.45472 37.2014 5.53964 37.2014C4.93136 37.2014 4.31964 37.1578 3.72097 37.0712C3.42355 37.028 3.13917 37.2425 3.03785 37.5881C2.93652 37.9337 3.04394 38.319 3.29691 38.5171C7.04183 41.4499 11.372 43 15.8191 43C24.5615 43 30.0306 37.9647 33.0789 33.7405C36.8803 28.4734 39.0603 21.5016 39.0603 14.6131C39.0603 14.3253 39.0567 14.0348 39.0495 13.7451C40.5492 12.365 41.8404 10.6947 42.8911 8.77503C43.0507 8.48352 43.0335 8.09811 42.8485 7.82978C42.6641 7.56098 42.3563 7.47414 42.0936 7.61632Z" fill="black"/>
</svg>
