<svg width="47" height="47" viewBox="0 0 47 47" fill="none" xmlns="http://www.w3.org/2000/svg">
<rect width="47" height="47" fill="#E1B838"/>
<path d="M34.0204 9H11.9796C7.02824 9 3 13.0282 3 17.9796V28.5918C3 33.5432 7.02824 37.5714 11.9796 37.5714H34.0204C38.9718 37.5714 43 33.5432 43 28.5918V17.9796C43 13.0282 38.9718 9 34.0204 9ZM41.3673 28.5918C41.3673 32.6429 38.0715 35.9388 34.0204 35.9388H11.9796C7.92849 35.9388 4.63265 32.6429 4.63265 28.5918V17.9796C4.63265 13.9285 7.92849 10.6327 11.9796 10.6327H34.0204C38.0715 10.6327 41.3673 13.9285 41.3673 17.9796V28.5918Z" fill="black"/>
<path d="M29.4365 22.5322L19.6405 18.4505C19.3887 18.3455 19.1009 18.3734 18.8738 18.5249C18.6467 18.6762 18.5103 18.9312 18.5103 19.2041V27.3673C18.5103 27.6403 18.6467 27.8952 18.8738 28.0465C19.0098 28.1373 19.1677 28.1837 19.3267 28.1837C19.4329 28.1837 19.5396 28.1629 19.6405 28.1209L29.4365 24.0393C29.7407 23.9125 29.9388 23.6153 29.9388 23.2857C29.9388 22.9562 29.7406 22.6589 29.4365 22.5322ZM20.1429 26.1429V20.4286L27 23.2857L20.1429 26.1429Z" fill="black"/>
</svg>
