<svg width="50" height="50" viewBox="0 0 50 50" fill="none" xmlns="http://www.w3.org/2000/svg">
<path fill-rule="evenodd" clip-rule="evenodd" d="M31.1111 8.29639C33.8199 8.29639 36.1262 10.0282 36.9807 12.4445H18.6667C15.9163 12.4445 13.2785 13.5371 11.3337 15.4819C9.38889 17.4268 8.2963 20.0645 8.2963 22.8149V32.8327C7.08281 32.4033 6.03228 31.6083 5.28939 30.5571C4.54649 29.5059 4.14778 28.2503 4.14815 26.9631V14.5186C4.14815 12.8684 4.8037 11.2857 5.97059 10.1188C7.13749 8.95194 8.72013 8.29639 10.3704 8.29639H31.1111ZM39.4074 16.5927H18.6667C17.0164 16.5927 15.4338 17.2482 14.2669 18.4151C13.1 19.582 12.4444 21.1647 12.4444 22.8149V35.2593C12.4444 36.9096 13.1 38.4922 14.2669 39.6591C15.4338 40.826 17.0164 41.4816 18.6667 41.4816H39.4074C41.0576 41.4816 42.6403 40.826 43.8072 39.6591C44.9741 38.4922 45.6296 36.9096 45.6296 35.2593V22.8149C45.6296 21.1647 44.9741 19.582 43.8072 18.4151C42.6403 17.2482 41.0576 16.5927 39.4074 16.5927ZM33.1852 29.0371C33.1852 30.1373 32.7481 31.1924 31.9702 31.9703C31.1923 32.7482 30.1372 33.1853 29.037 33.1853C27.9369 33.1853 26.8818 32.7482 26.1039 31.9703C25.3259 31.1924 24.8889 30.1373 24.8889 29.0371C24.8889 27.937 25.3259 26.8819 26.1039 26.1039C26.8818 25.326 27.9369 24.889 29.037 24.889C30.1372 24.889 31.1923 25.326 31.9702 26.1039C32.7481 26.8819 33.1852 27.937 33.1852 29.0371V29.0371Z" fill="url(#paint0_linear_2_413)"/>
<defs>
<linearGradient id="paint0_linear_2_413" x1="11.7099" y1="57.7285" x2="58.0722" y2="12.6012" gradientUnits="userSpaceOnUse">
<stop stop-color="#982DEC"/>
<stop offset="0.572917" stop-color="#DC8DF8"/>
<stop offset="0.895833" stop-color="#A9C4F3"/>
</linearGradient>
</defs>
</svg>
