<svg width="50" height="50" viewBox="0 0 50 50" fill="none" xmlns="http://www.w3.org/2000/svg">
<path d="M19.911 12.4445C19.2509 12.4445 18.6179 12.7067 18.1511 13.1735C17.6844 13.6403 17.4221 14.2733 17.4221 14.9334C17.4221 15.5935 17.6844 16.2266 18.1511 16.6933C18.6179 17.1601 19.2509 17.4223 19.911 17.4223H33.814L30.5958 20.6404C30.1425 21.1098 29.8916 21.7385 29.8973 22.3911C29.9029 23.0437 30.1647 23.6679 30.6262 24.1294C31.0876 24.5909 31.7119 24.8526 32.3644 24.8583C33.017 24.8639 33.6457 24.6131 34.1151 24.1597L41.5818 16.693C42.0484 16.2263 42.3105 15.5934 42.3105 14.9334C42.3105 14.2734 42.0484 13.6405 41.5818 13.1738L34.1151 5.70709C33.8855 5.46938 33.6109 5.27977 33.3072 5.14933C33.0036 5.01889 32.677 4.95023 32.3465 4.94736C32.016 4.94449 31.6883 5.00746 31.3824 5.1326C31.0766 5.25775 30.7987 5.44256 30.565 5.67624C30.3313 5.90993 30.1465 6.18782 30.0213 6.4937C29.8962 6.79957 29.8332 7.12731 29.8361 7.45778C29.839 7.78825 29.9076 8.11485 30.0381 8.4185C30.1685 8.72215 30.3581 8.99679 30.5958 9.22638L33.814 12.4445H19.911Z" fill="url(#paint0_linear_2_410)"/>
<path d="M29.8666 37.3334C30.5267 37.3334 31.1598 37.0712 31.6265 36.6044C32.0933 36.1377 32.3555 35.5046 32.3555 34.8445C32.3555 34.1844 32.0933 33.5514 31.6265 33.0846C31.1598 32.6178 30.5267 32.3556 29.8666 32.3556H15.9637L19.1818 29.1375C19.4195 28.9079 19.6091 28.6333 19.7396 28.3296C19.87 28.026 19.9387 27.6994 19.9415 27.3689C19.9444 27.0384 19.8814 26.7107 19.7563 26.4048C19.6311 26.0989 19.4463 25.821 19.2127 25.5874C18.979 25.3537 18.7011 25.1689 18.3952 25.0437C18.0893 24.9186 17.7616 24.8556 17.4311 24.8585C17.1006 24.8613 16.774 24.93 16.4704 25.0604C16.1667 25.1909 15.8921 25.3805 15.6625 25.6182L8.19585 33.0849C7.72925 33.5516 7.46713 34.1845 7.46713 34.8445C7.46713 35.5045 7.72925 36.1374 8.19585 36.6042L15.6625 44.0708C16.1319 44.5242 16.7606 44.7751 17.4132 44.7694C18.0658 44.7637 18.69 44.502 19.1515 44.0405C19.6129 43.579 19.8747 42.9548 19.8804 42.3022C19.886 41.6496 19.6352 41.0209 19.1818 40.5515L15.9637 37.3334H29.8666Z" fill="url(#paint1_linear_2_410)"/>
<defs>
<linearGradient id="paint0_linear_2_410" x1="13.8188" y1="64.2658" x2="65.6139" y2="28.9761" gradientUnits="userSpaceOnUse">
<stop stop-color="#982DEC"/>
<stop offset="0.572917" stop-color="#DC8DF8"/>
<stop offset="0.895833" stop-color="#A9C4F3"/>
</linearGradient>
<linearGradient id="paint1_linear_2_410" x1="13.8188" y1="64.2658" x2="65.6139" y2="28.9761" gradientUnits="userSpaceOnUse">
<stop stop-color="#982DEC"/>
<stop offset="0.572917" stop-color="#DC8DF8"/>
<stop offset="0.895833" stop-color="#A9C4F3"/>
</linearGradient>
</defs>
</svg>
