<svg width="50" height="50" viewBox="0 0 50 50" fill="none" xmlns="http://www.w3.org/2000/svg">
<path d="M39.8222 15.5555V11.8222C39.8222 9.76327 38.1478 8.08887 36.0889 8.08887H11.8222C8.73475 8.08887 6.22222 10.6014 6.22222 13.6889V36.0889C6.22222 40.1974 9.57102 41.6889 11.8222 41.6889H39.8222C41.8812 41.6889 43.5556 40.0145 43.5556 37.9555V19.2889C43.5556 17.2299 41.8812 15.5555 39.8222 15.5555ZM36.0889 32.3555H32.3556V24.8889H36.0889V32.3555ZM11.8222 15.5555C11.3416 15.534 10.8878 15.328 10.5553 14.9803C10.2228 14.6325 10.0372 14.17 10.0372 13.6889C10.0372 13.2078 10.2228 12.7452 10.5553 12.3975C10.8878 12.0498 11.3416 11.8437 11.8222 11.8222H36.0889V15.5555H11.8222Z" fill="url(#paint0_linear_2_416)"/>
<defs>
<linearGradient id="paint0_linear_2_416" x1="13.0278" y1="58.1389" x2="59.4988" y2="17.9317" gradientUnits="userSpaceOnUse">
<stop stop-color="#982DEC"/>
<stop offset="0.572917" stop-color="#DC8DF8"/>
<stop offset="0.895833" stop-color="#A9C4F3"/>
</linearGradient>
</defs>
</svg>
