<svg width="136" height="38" viewBox="0 0 136 38" fill="none" xmlns="http://www.w3.org/2000/svg">
<path d="M33.008 32.396C29.3333 36.036 24.8613 37.856 19.592 37.856C14.3227 37.856 9.85067 36.036 6.176 32.396C2.536 28.7213 0.716003 24.232 0.716003 18.928C0.716003 13.624 2.536 9.152 6.176 5.512C9.85067 1.83733 14.3227 0 19.592 0C24.8613 0 29.3333 1.83733 33.008 5.512C36.6827 9.152 38.52 13.624 38.52 18.928C38.52 24.232 36.6827 28.7213 33.008 32.396ZM11.22 27.508C13.4733 29.7267 16.264 30.836 19.592 30.836C22.92 30.836 25.7107 29.7267 27.964 27.508C30.2173 25.2547 31.344 22.3947 31.344 18.928C31.344 15.4613 30.2173 12.6013 27.964 10.348C25.7107 8.09467 22.92 6.968 19.592 6.968C16.264 6.968 13.4733 8.09467 11.22 10.348C8.96667 12.6013 7.84 15.4613 7.84 18.928C7.84 22.3947 8.96667 25.2547 11.22 27.508Z" fill="#E1E1E1"/>
<path d="M65.2996 7.592H50.7396V16.224H64.8836V23.088H50.7396V37.128H43.5636V0.728H65.2996V7.592Z" fill="#E1E1E1"/>
<path d="M84.9844 0.728C89.9764 0.728 94.1364 2.47867 97.4644 5.98C100.827 9.48133 102.508 13.7973 102.508 18.928C102.508 24.0587 100.827 28.3747 97.4644 31.876C94.1364 35.3773 89.9764 37.128 84.9844 37.128H70.5284V0.728H84.9844ZM84.9844 30.264C88.1391 30.264 90.7044 29.224 92.6804 27.144C94.6564 25.0293 95.6444 22.2907 95.6444 18.928C95.6444 15.5653 94.6564 12.844 92.6804 10.764C90.7044 8.64933 88.1391 7.592 84.9844 7.592H77.7044V30.264H84.9844Z" fill="#E1E1E1"/>
<path d="M127.567 37.128L120.235 24.492H114.775V37.128H107.599V0.728H122.159C125.521 0.728 128.381 1.90667 130.739 4.264C133.096 6.62133 134.275 9.464 134.275 12.792C134.275 15.0453 133.633 17.1427 132.351 19.084C131.068 20.9907 129.369 22.4293 127.255 23.4L135.315 37.128H127.567ZM114.775 7.436V18.2H122.159C123.511 18.2 124.672 17.68 125.643 16.64C126.613 15.5653 127.099 14.2827 127.099 12.792C127.099 11.3013 126.613 10.036 125.643 8.996C124.672 7.956 123.511 7.436 122.159 7.436H114.775Z" fill="#E1E1E1"/>
</svg>
