<svg width="101" height="100" viewBox="0 0 101 100" fill="none" xmlns="http://www.w3.org/2000/svg">
<path d="M88.7083 8.58331C85.7216 8.06887 82.6973 7.80406 79.6667 7.79164C69.3265 7.78317 59.202 10.7482 50.5 16.3333C41.7756 10.8215 31.6527 7.92927 21.3333 7.99998C18.3027 8.0124 15.2783 8.2772 12.2917 8.79164C11.3134 8.9603 10.4274 9.47272 9.79339 10.2366C9.15935 11.0005 8.8189 11.9657 8.83333 12.9583V62.9583C8.82441 63.5705 8.95052 64.1772 9.2027 64.7351C9.45489 65.2931 9.82694 65.7886 10.2924 66.1864C10.7578 66.5842 11.3052 66.8746 11.8956 67.0368C12.4861 67.199 13.105 67.2291 13.7083 67.125C19.6792 66.0912 25.7967 66.2627 31.7003 67.6295C37.6039 68.9962 43.1743 71.5306 48.0833 75.0833L48.5833 75.375H49.0417C49.5038 75.5675 49.9994 75.6666 50.5 75.6666C51.0006 75.6666 51.4962 75.5675 51.9583 75.375H52.4167L52.9167 75.0833C57.7915 71.4512 63.3459 68.8347 69.2506 67.3889C75.1554 65.9432 81.2902 65.6976 87.2917 66.6666C87.895 66.7708 88.5139 66.7407 89.1044 66.5785C89.6948 66.4163 90.2422 66.1259 90.7076 65.7281C91.1731 65.3303 91.5451 64.8348 91.7973 64.2768C92.0495 63.7189 92.1756 63.1122 92.1667 62.5V12.5C92.1233 11.5506 91.7567 10.6446 91.1277 9.93222C90.4987 9.21983 89.645 8.74388 88.7083 8.58331ZM46.3333 63.9583C38.6245 59.9028 30.0438 57.7863 21.3333 57.7916C19.9583 57.7916 18.5833 57.7916 17.1667 57.7916V16.125C18.5544 16.045 19.9456 16.045 21.3333 16.125C30.2224 16.1152 38.9176 18.7237 46.3333 23.625V63.9583ZM83.8333 57.9583C82.4167 57.9583 81.0417 57.9583 79.6667 57.9583C70.9562 57.9529 62.3755 60.0695 54.6667 64.125V23.625C62.0824 18.7237 70.7776 16.1152 79.6667 16.125C81.0544 16.045 82.4456 16.045 83.8333 16.125V57.9583ZM88.7083 75.25C85.7216 74.7355 82.6973 74.4707 79.6667 74.4583C69.3265 74.4498 59.202 77.4149 50.5 83C41.798 77.4149 31.6735 74.4498 21.3333 74.4583C18.3027 74.4707 15.2783 74.7355 12.2917 75.25C11.7493 75.336 11.2293 75.5285 10.7615 75.8162C10.2938 76.104 9.8875 76.4814 9.56611 76.9267C9.24471 77.372 9.01452 77.8764 8.88876 78.411C8.76301 78.9456 8.74417 79.4998 8.83333 80.0416C9.04507 81.1237 9.67704 82.0776 10.5908 82.6946C11.5045 83.3116 12.6256 83.5413 13.7083 83.3333C19.6792 82.2995 25.7967 82.471 31.7003 83.8378C37.6039 85.2046 43.1743 87.7389 48.0833 91.2916C48.789 91.7941 49.6337 92.0641 50.5 92.0641C51.3663 92.0641 52.211 91.7941 52.9167 91.2916C57.8257 87.7389 63.3961 85.2046 69.2997 83.8378C75.2033 82.471 81.3208 82.2995 87.2917 83.3333C88.3744 83.5413 89.4955 83.3116 90.4092 82.6946C91.323 82.0776 91.9549 81.1237 92.1667 80.0416C92.2558 79.4998 92.237 78.9456 92.1112 78.411C91.9855 77.8764 91.7553 77.372 91.4339 76.9267C91.1125 76.4814 90.7062 76.104 90.2385 75.8162C89.7707 75.5285 89.2507 75.336 88.7083 75.25V75.25Z" fill="#464DDA"/>
</svg>
