<svg width="202" height="27" viewBox="0 0 202 27" fill="none" xmlns="http://www.w3.org/2000/svg">
<path d="M19.7949 21.8867V26H1.6543V21.8867H19.7949ZM19.5312 3.3418L3.99219 26H0.283203V22.9766L15.9453 0.40625H19.5312V3.3418ZM17.7207 0.40625V4.53711H0.300781V0.40625H17.7207Z" fill="black"/>
<path d="M43.9824 0.40625V26H38.709L28.4258 8.84375V26H23.1523V0.40625H28.4258L38.7266 17.5801V0.40625H43.9824Z" fill="black"/>
<path d="M69.5938 12.6055V13.8184C69.5938 15.7637 69.3301 17.5098 68.8027 19.0566C68.2754 20.6035 67.5312 21.9219 66.5703 23.0117C65.6094 24.0898 64.4609 24.916 63.125 25.4902C61.8008 26.0645 60.3301 26.3516 58.7129 26.3516C57.1074 26.3516 55.6367 26.0645 54.3008 25.4902C52.9766 24.916 51.8281 24.0898 50.8555 23.0117C49.8828 21.9219 49.127 20.6035 48.5879 19.0566C48.0605 17.5098 47.7969 15.7637 47.7969 13.8184V12.6055C47.7969 10.6484 48.0605 8.90234 48.5879 7.36719C49.1152 5.82031 49.8594 4.50195 50.8203 3.41211C51.793 2.32227 52.9414 1.49023 54.2656 0.916016C55.6016 0.341797 57.0723 0.0546875 58.6777 0.0546875C60.2949 0.0546875 61.7656 0.341797 63.0898 0.916016C64.4258 1.49023 65.5742 2.32227 66.5352 3.41211C67.5078 4.50195 68.2578 5.82031 68.7852 7.36719C69.3242 8.90234 69.5938 10.6484 69.5938 12.6055ZM64.2676 13.8184V12.5703C64.2676 11.2109 64.1445 10.0156 63.8984 8.98438C63.6523 7.95312 63.2891 7.08594 62.8086 6.38281C62.3281 5.67969 61.7422 5.15234 61.0508 4.80078C60.3594 4.4375 59.5684 4.25586 58.6777 4.25586C57.7871 4.25586 56.9961 4.4375 56.3047 4.80078C55.625 5.15234 55.0449 5.67969 54.5645 6.38281C54.0957 7.08594 53.7383 7.95312 53.4922 8.98438C53.2461 10.0156 53.123 11.2109 53.123 12.5703V13.8184C53.123 15.166 53.2461 16.3613 53.4922 17.4043C53.7383 18.4355 54.1016 19.3086 54.582 20.0234C55.0625 20.7266 55.6484 21.2598 56.3398 21.623C57.0312 21.9863 57.8223 22.168 58.7129 22.168C59.6035 22.168 60.3945 21.9863 61.0859 21.623C61.7773 21.2598 62.3574 20.7266 62.8262 20.0234C63.2949 19.3086 63.6523 18.4355 63.8984 17.4043C64.1445 16.3613 64.2676 15.166 64.2676 13.8184Z" fill="black"/>
<path d="M90.459 10.8301V14.9434H77.0996V10.8301H90.459ZM78.6641 0.40625V26H73.3906V0.40625H78.6641ZM94.2207 0.40625V26H88.9648V0.40625H94.2207Z" fill="black"/>
<path d="M115.982 21.8867V26H102.359V21.8867H115.982ZM104.082 0.40625V26H98.8086V0.40625H104.082ZM114.207 10.8301V14.8379H102.359V10.8301H114.207ZM115.965 0.40625V4.53711H102.359V0.40625H115.965Z" fill="black"/>
<path d="M135.512 21.8867V26H122.627V21.8867H135.512ZM124.332 0.40625V26H119.059V0.40625H124.332Z" fill="black"/>
<path d="M148.502 16.877H141.98V12.7637H148.502C149.51 12.7637 150.33 12.5996 150.963 12.2715C151.596 11.9316 152.059 11.4629 152.352 10.8652C152.645 10.2676 152.791 9.59375 152.791 8.84375C152.791 8.08203 152.645 7.37305 152.352 6.7168C152.059 6.06055 151.596 5.5332 150.963 5.13477C150.33 4.73633 149.51 4.53711 148.502 4.53711H143.809V26H138.535V0.40625H148.502C150.506 0.40625 152.223 0.769531 153.652 1.49609C155.094 2.21094 156.195 3.20117 156.957 4.4668C157.719 5.73242 158.1 7.17969 158.1 8.80859C158.1 10.4609 157.719 11.8906 156.957 13.0977C156.195 14.3047 155.094 15.2363 153.652 15.8926C152.223 16.5488 150.506 16.877 148.502 16.877Z" fill="black"/>
<path d="M178.912 21.8867V26H165.289V21.8867H178.912ZM167.012 0.40625V26H161.738V0.40625H167.012ZM177.137 10.8301V14.8379H165.289V10.8301H177.137ZM178.895 0.40625V4.53711H165.289V0.40625H178.895Z" fill="black"/>
<path d="M181.988 0.40625H191.533C193.49 0.40625 195.172 0.699219 196.578 1.28516C197.996 1.87109 199.086 2.73828 199.848 3.88672C200.609 5.03516 200.99 6.44727 200.99 8.12305C200.99 9.49414 200.756 10.6719 200.287 11.6562C199.83 12.6289 199.18 13.4434 198.336 14.0996C197.504 14.7441 196.525 15.2598 195.4 15.6465L193.73 16.5254H185.434L185.398 12.4121H191.568C192.494 12.4121 193.262 12.248 193.871 11.9199C194.48 11.5918 194.938 11.1348 195.242 10.5488C195.559 9.96289 195.717 9.2832 195.717 8.50977C195.717 7.68945 195.564 6.98047 195.26 6.38281C194.955 5.78516 194.492 5.32812 193.871 5.01172C193.25 4.69531 192.471 4.53711 191.533 4.53711H187.262V26H181.988V0.40625ZM196.297 26L190.461 14.5918L196.033 14.5566L201.939 25.7539V26H196.297Z" fill="black"/>
</svg>
