<svg width="101" height="100" viewBox="0 0 101 100" fill="none" xmlns="http://www.w3.org/2000/svg">
<path d="M46.3333 49.5833V70.8333C46.3333 71.9384 46.7723 72.9982 47.5537 73.7796C48.3351 74.561 49.3949 75 50.5 75C51.6051 75 52.6649 74.561 53.4463 73.7796C54.2277 72.9982 54.6667 71.9384 54.6667 70.8333V49.5833C59.7252 48.5508 64.2201 45.6767 67.28 41.5184C70.3399 37.36 71.7467 32.2137 71.2278 27.077C70.7089 21.9403 68.3012 17.1793 64.4715 13.7169C60.6417 10.2546 55.6628 8.33759 50.5 8.33759C45.3372 8.33759 40.3583 10.2546 36.5285 13.7169C32.6988 17.1793 30.2911 21.9403 29.7722 27.077C29.2533 32.2137 30.6601 37.36 33.72 41.5184C36.7799 45.6767 41.2748 48.5508 46.3333 49.5833ZM50.5 16.6667C52.9723 16.6667 55.389 17.3998 57.4446 18.7733C59.5002 20.1468 61.1024 22.099 62.0485 24.3831C62.9946 26.6672 63.2421 29.1805 62.7598 31.6053C62.2775 34.0301 61.087 36.2573 59.3388 38.0055C57.5907 39.7537 55.3634 40.9442 52.9386 41.4265C50.5139 41.9088 48.0005 41.6613 45.7165 40.7152C43.4324 39.7691 41.4801 38.1669 40.1066 36.1113C38.7331 34.0557 38 31.6389 38 29.1667C38 25.8515 39.317 22.672 41.6612 20.3278C44.0054 17.9836 47.1848 16.6667 50.5 16.6667V16.6667ZM68.0417 60.0833C67.4945 59.9684 66.93 59.9624 66.3805 60.0657C65.831 60.1689 65.3073 60.3793 64.8391 60.685C64.3709 60.9907 63.9676 61.3855 63.652 61.8471C63.3365 62.3086 63.1149 62.8278 63 63.375C62.8851 63.9222 62.8791 64.4866 62.9823 65.0361C63.0856 65.5856 63.296 66.1094 63.6017 66.5776C63.9073 67.0457 64.3022 67.4491 64.7638 67.7647C65.2253 68.0802 65.7445 68.3018 66.2917 68.4167C75.75 70.2917 79.6667 73.6667 79.6667 75C79.6667 77.4167 69.4583 83.3333 50.5 83.3333C31.5417 83.3333 21.3333 77.4167 21.3333 75C21.3333 73.6667 25.25 70.2917 34.7083 68.25C35.2555 68.1351 35.7747 67.9135 36.2362 67.598C36.6978 67.2824 37.0927 66.8791 37.3983 66.4109C37.704 65.9427 37.9144 65.419 38.0177 64.8695C38.1209 64.32 38.1149 63.7555 38 63.2083C37.8851 62.6612 37.6635 62.142 37.348 61.6804C37.0324 61.2189 36.6291 60.824 36.1609 60.5183C35.6927 60.2127 35.169 60.0022 34.6195 59.899C34.07 59.7958 33.5055 59.8018 32.9583 59.9167C20.2917 62.8333 13 68.2917 13 75C13 85.9583 31.875 91.6667 50.5 91.6667C69.125 91.6667 88 85.9583 88 75C88 68.2917 80.7083 62.8333 68.0417 60.0833Z" fill="#464DDA"/>
</svg>
