<svg width="101" height="100" viewBox="0 0 101 100" fill="none" xmlns="http://www.w3.org/2000/svg">
<path d="M100.5 44.991C100.514 41.4605 99.5978 37.989 97.8445 34.928C96.0912 31.8669 93.5629 29.3251 90.5157 27.5599C90.5908 26.6933 90.5908 25.8218 90.5157 24.9552C90.5157 20.9698 88.9379 17.1477 86.1293 14.3296C83.3207 11.5115 79.5114 9.92831 75.5395 9.92831H74.6409C73.8096 7.61574 72.4255 5.54314 70.61 3.89225C68.7945 2.24136 66.6031 1.06262 64.2278 0.459395C61.8526 -0.143835 59.3662 -0.153129 56.9866 0.432329C54.6069 1.01779 52.4068 2.18011 50.5791 3.81738C48.7514 2.18011 46.5513 1.01779 44.1716 0.432329C41.792 -0.153129 39.3056 -0.143835 36.9304 0.459395C34.5551 1.06262 32.3637 2.24136 30.5482 3.89225C28.7327 5.54314 27.3486 7.61574 26.5173 9.92831H25.6187C21.6468 9.92831 17.8375 11.5115 15.0289 14.3296C12.2204 17.1477 10.6425 20.9698 10.6425 24.9552C10.5674 25.8218 10.5674 26.6933 10.6425 27.5599C7.80931 29.1667 5.41047 31.444 3.65481 34.1936C1.89914 36.9431 0.839865 40.0816 0.569188 43.3358C0.298512 46.5899 0.824639 49.8612 2.10177 52.8647C3.3789 55.8683 5.36833 58.5131 7.89687 60.5689C6.26082 63.6307 5.44633 67.0667 5.53335 70.5397C5.62036 74.0128 6.60589 77.4034 8.39319 80.3788C10.1805 83.3543 12.7082 85.8123 15.7281 87.5116C18.748 89.2109 22.1564 90.0932 25.6187 90.0717H26.5173C27.3486 92.3843 28.7327 94.4569 30.5482 96.1077C32.3637 97.7586 34.5551 98.9374 36.9304 99.5406C39.3056 100.144 41.792 100.153 44.1716 99.5677C46.5513 98.9822 48.7514 97.8199 50.5791 96.1826C52.4068 97.8199 54.6069 98.9822 56.9866 99.5677C59.3662 100.153 61.8526 100.144 64.2278 99.5406C66.6031 98.9374 68.7945 97.7586 70.61 96.1077C72.4255 94.4569 73.8096 92.3843 74.6409 90.0717H75.5395C78.9807 90.0499 82.3578 89.1361 85.3434 87.419C88.3289 85.7019 90.8216 83.2398 92.5795 80.2714C94.3374 77.303 95.301 73.9292 95.3767 70.4772C95.4525 67.0251 94.6378 63.612 93.0117 60.5689C95.3402 58.6984 97.2214 56.3282 98.5173 53.6324C99.8131 50.9367 100.491 47.9839 100.5 44.991ZM45.587 32.7191C44.4998 32.0951 43.3646 31.5591 42.1924 31.1162C40.9346 30.6911 39.5601 30.7848 38.3711 31.3766C37.1821 31.9684 36.2762 33.0098 35.8525 34.2719C35.4288 35.5339 35.5221 36.9131 36.1119 38.1061C36.7017 39.2991 37.7397 40.2081 38.9975 40.6332C40.9191 41.3303 42.5814 42.6022 43.7598 44.2772C44.9381 45.9523 45.5759 47.9497 45.587 50V57.7639C44.4998 57.1399 43.3646 56.6039 42.1924 56.161C40.9346 55.7359 39.5601 55.8296 38.3711 56.4214C37.1821 57.0132 36.2762 58.0546 35.8525 59.3167C35.4288 60.5787 35.5221 61.9579 36.1119 63.1509C36.7017 64.3439 37.7397 65.2529 38.9975 65.678C40.9191 66.3751 42.5814 67.647 43.7598 69.322C44.9381 70.9971 45.5759 72.9945 45.587 75.0448V85.0627C45.587 86.3912 45.0611 87.6652 44.1249 88.6046C43.1887 89.544 41.9189 90.0717 40.595 90.0717C39.6292 90.0654 38.6859 89.7781 37.8796 89.2446C37.0733 88.7112 36.4385 87.9545 36.0522 87.0663C36.8892 86.5735 37.69 86.0211 38.4484 85.4134C38.9531 84.9924 39.3704 84.4757 39.6762 83.893C39.982 83.3102 40.1704 82.6727 40.2306 82.0169C40.2909 81.3611 40.2218 80.6998 40.0274 80.0707C39.8329 79.4417 39.5169 78.8572 39.0973 78.3507C38.6778 77.8442 38.1629 77.4256 37.5821 77.1188C37.0013 76.8119 36.3659 76.6229 35.7123 76.5624C35.0587 76.5019 34.3996 76.5712 33.7727 76.7664C33.1458 76.9615 32.5633 77.2786 32.0585 77.6996C30.256 79.2222 27.9749 80.0561 25.6187 80.0538C22.9708 80.0538 20.4313 78.9983 18.5589 77.1196C16.6865 75.2409 15.6346 72.6928 15.6346 70.0358C15.6585 68.1504 16.2122 66.3101 17.232 64.7263C18.3524 64.928 19.4884 65.0285 20.6267 65.0269C21.9506 65.0269 23.2204 64.4992 24.1566 63.5598C25.0928 62.6204 25.6187 61.3464 25.6187 60.0179C25.6187 58.6895 25.0928 57.4154 24.1566 56.476C23.2204 55.5367 21.9506 55.009 20.6267 55.009C19.4475 55.0158 18.278 54.7947 17.1821 54.3578C15.3867 53.7081 13.8145 52.5556 12.6518 51.0369C11.489 49.5182 10.7845 47.6969 10.6217 45.7888C10.4588 43.8807 10.8445 41.9657 11.7329 40.2708C12.6214 38.5758 13.9754 37.1719 15.6346 36.2254C16.3439 36.8802 17.1127 37.4672 17.9309 37.9785C19.0828 38.6427 20.4505 38.8206 21.733 38.4731C23.0156 38.1255 24.1081 37.2809 24.7701 36.1252C25.4321 34.9694 25.6094 33.5971 25.263 32.3102C24.9166 31.0233 24.0749 29.9271 22.923 29.2629C22.2203 28.8739 21.6342 28.3032 21.2257 27.6099C20.7642 26.8057 20.5554 25.8804 20.6267 24.9552C20.6267 23.6267 21.1526 22.3527 22.0888 21.4133C23.025 20.474 24.2948 19.9462 25.6187 19.9462C25.9665 19.8976 26.3193 19.8976 26.6671 19.9462C26.9313 20.751 27.2482 21.5375 27.6156 22.3004C27.9417 22.8744 28.3778 23.378 28.8987 23.7821C29.4196 24.1863 30.015 24.483 30.6507 24.6553C31.2864 24.8275 31.9498 24.8719 32.6026 24.7858C33.2555 24.6998 33.8849 24.485 34.4547 24.1538C35.5615 23.4856 36.3671 22.413 36.7022 21.1614C37.0373 19.9097 36.8759 18.5765 36.2519 17.4418C35.833 16.6734 35.61 15.813 35.6029 14.9373C35.6029 13.6088 36.1288 12.3348 37.065 11.3954C38.0012 10.456 39.271 9.92831 40.595 9.92831C41.9189 9.92831 43.1887 10.456 44.1249 11.3954C45.0611 12.3348 45.587 13.6088 45.587 14.9373V32.7191ZM83.9761 54.3578C82.8802 54.7947 81.7107 55.0158 80.5315 55.009C79.2076 55.009 77.9378 55.5367 77.0016 56.476C76.0654 57.4154 75.5395 58.6895 75.5395 60.0179C75.5395 61.3464 76.0654 62.6204 77.0016 63.5598C77.9378 64.4992 79.2076 65.0269 80.5315 65.0269C81.6698 65.0285 82.8058 64.928 83.9262 64.7263C84.946 66.3101 85.4997 68.1504 85.5236 70.0358C85.5236 72.6928 84.4717 75.2409 82.5993 77.1196C80.7269 78.9983 78.1874 80.0538 75.5395 80.0538C73.1833 80.0561 70.9022 79.2222 69.0997 77.6996C68.0802 76.8493 66.7659 76.4403 65.4459 76.5624C64.1258 76.6845 62.9082 77.3278 62.0609 78.3507C61.2135 79.3736 60.8059 80.6924 60.9276 82.0169C61.0493 83.3414 61.6904 84.5631 62.7098 85.4134C63.4682 86.0211 64.269 86.5735 65.106 87.0663C64.7197 87.9545 64.0849 88.7112 63.2786 89.2446C62.4723 89.7781 61.5291 90.0654 60.5633 90.0717C59.2393 90.0717 57.9695 89.544 57.0333 88.6046C56.0971 87.6652 55.5712 86.3912 55.5712 85.0627V75.0448C55.5823 72.9945 56.2201 70.9971 57.3984 69.322C58.5768 67.647 60.2391 66.3751 62.1607 65.678C63.4185 65.2529 64.4565 64.3439 65.0463 63.1509C65.6361 61.9579 65.7294 60.5787 65.3057 59.3167C64.882 58.0546 63.9761 57.0132 62.7871 56.4214C61.5981 55.8296 60.2236 55.7359 58.9658 56.161C57.7936 56.6039 56.6585 57.1399 55.5712 57.7639V50C55.5823 47.9497 56.2201 45.9523 57.3984 44.2772C58.5768 42.6022 60.2391 41.3303 62.1607 40.6332C63.4185 40.2081 64.4565 39.2991 65.0463 38.1061C65.6361 36.9131 65.7294 35.5339 65.3057 34.2719C64.882 33.0098 63.9761 31.9684 62.7871 31.3766C61.5981 30.7848 60.2236 30.6911 58.9658 31.1162C57.7936 31.5591 56.6585 32.0951 55.5712 32.7191V14.9373C55.5712 13.6088 56.0971 12.3348 57.0333 11.3954C57.9695 10.456 59.2393 9.92831 60.5633 9.92831C61.8872 9.92831 63.157 10.456 64.0932 11.3954C65.0294 12.3348 65.5553 13.6088 65.5553 14.9373C65.5482 15.813 65.3252 16.6734 64.9064 17.4418C64.5742 18.0105 64.3572 18.6393 64.2678 19.2924C64.1784 19.9454 64.2183 20.6097 64.3852 21.2472C64.5522 21.8847 64.8429 22.4829 65.2407 23.0075C65.6385 23.532 66.1356 23.9726 66.7035 24.304C67.2733 24.6352 67.9027 24.85 68.5556 24.9361C69.2084 25.0222 69.8718 24.9778 70.5075 24.8055C71.1432 24.6333 71.7386 24.3365 72.2595 23.9324C72.7804 23.5282 73.2165 23.0247 73.5426 22.4507C73.9163 21.639 74.2332 20.8021 74.4911 19.9462C74.8389 19.8976 75.1917 19.8976 75.5395 19.9462C76.8635 19.9462 78.1332 20.474 79.0694 21.4133C80.0056 22.3527 80.5315 23.6267 80.5315 24.9552C80.5239 25.9371 80.2288 26.8951 79.6829 27.7101C79.2746 28.3601 78.7075 28.8946 78.0355 29.2629C76.8837 29.9271 76.0419 31.0233 75.6955 32.3102C75.3492 33.5971 75.5265 34.9694 76.1884 36.1252C76.8504 37.2809 77.9429 38.1255 79.2255 38.4731C80.5081 38.8206 81.8757 38.6427 83.0276 37.9785C83.9239 37.4921 84.7614 36.9039 85.5236 36.2254C87.1885 37.1552 88.5534 38.5436 89.4572 40.2267C90.361 41.9098 90.766 43.8172 90.6242 45.7237C90.4825 47.6303 89.8 49.4563 88.6574 50.9862C87.5148 52.5161 85.9597 53.6861 84.1758 54.3578H83.9761Z" fill="#464DDA"/>
</svg>
