<svg width="101" height="100" viewBox="0 0 101 100" fill="none" xmlns="http://www.w3.org/2000/svg">
<path d="M88 75H79.6667V62.5C79.6667 61.395 79.2277 60.3351 78.4463 59.5537C77.6649 58.7723 76.6051 58.3334 75.5 58.3334H54.6666V47.0417L59.375 49.5C60.0616 49.8592 60.8348 50.0198 61.6077 49.9638C62.3806 49.9077 63.1225 49.6373 63.7501 49.1828C64.3778 48.7283 64.8662 48.1078 65.1606 47.391C65.455 46.6741 65.5437 45.8894 65.4167 45.125L63.75 35.25L70.9166 28.2083C71.4595 27.6783 71.8472 27.0101 72.0382 26.2758C72.2291 25.5415 72.2159 24.769 72 24.0417C71.7585 23.3012 71.3142 22.6432 70.7177 22.1423C70.1211 21.6415 69.3961 21.318 68.625 21.2084L58.8333 19.6667L54.25 10.6667C53.9088 9.96222 53.3761 9.36811 52.7129 8.95241C52.0496 8.5367 51.2827 8.31622 50.5 8.31622C49.7172 8.31622 48.9503 8.5367 48.2871 8.95241C47.6239 9.36811 47.0912 9.96222 46.75 10.6667L42.1666 19.6667L32.2083 21.125C31.4372 21.2346 30.7122 21.5582 30.1156 22.059C29.519 22.5598 29.0748 23.2178 28.8333 23.9583C28.6174 24.6857 28.6042 25.4582 28.7951 26.1924C28.9861 26.9267 29.3738 27.5949 29.9166 28.125L37.25 35.25L35.5833 45.125C35.4563 45.8894 35.545 46.6741 35.8394 47.391C36.1338 48.1078 36.6222 48.7283 37.2498 49.1828C37.8775 49.6373 38.6194 49.9077 39.3923 49.9638C40.1652 50.0198 40.9383 49.8592 41.625 49.5L46.3333 47.0417V58.3334H25.5C24.3949 58.3334 23.3351 58.7723 22.5537 59.5537C21.7723 60.3351 21.3333 61.395 21.3333 62.5V75H13C11.8949 75 10.8351 75.439 10.0537 76.2204C9.2723 77.0018 8.83331 78.0616 8.83331 79.1667V87.5C8.83331 88.6051 9.2723 89.6649 10.0537 90.4463C10.8351 91.2277 11.8949 91.6667 13 91.6667C14.105 91.6667 15.1649 91.2277 15.9463 90.4463C16.7277 89.6649 17.1666 88.6051 17.1666 87.5V83.3334H33.8333V87.5C33.8333 88.6051 34.2723 89.6649 35.0537 90.4463C35.8351 91.2277 36.8949 91.6667 38 91.6667C39.1051 91.6667 40.1649 91.2277 40.9463 90.4463C41.7277 89.6649 42.1666 88.6051 42.1666 87.5V79.1667C42.1666 78.0616 41.7277 77.0018 40.9463 76.2204C40.1649 75.439 39.1051 75 38 75H29.6666V66.6667H71.3333V75H63C61.8949 75 60.8351 75.439 60.0537 76.2204C59.2723 77.0018 58.8333 78.0616 58.8333 79.1667V87.5C58.8333 88.6051 59.2723 89.6649 60.0537 90.4463C60.8351 91.2277 61.8949 91.6667 63 91.6667C64.1051 91.6667 65.1649 91.2277 65.9463 90.4463C66.7277 89.6649 67.1667 88.6051 67.1667 87.5V83.3334H83.8333V87.5C83.8333 88.6051 84.2723 89.6649 85.0537 90.4463C85.8351 91.2277 86.8949 91.6667 88 91.6667C89.1051 91.6667 90.1649 91.2277 90.9463 90.4463C91.7277 89.6649 92.1667 88.6051 92.1667 87.5V79.1667C92.1667 78.0616 91.7277 77.0018 90.9463 76.2204C90.1649 75.439 89.1051 75 88 75ZM50.5 35.9584C49.8161 35.9618 49.1435 36.1335 48.5416 36.4584L45.2083 38.2084L45.8333 34.4584C45.9426 33.795 45.8898 33.1151 45.6794 32.4766C45.469 31.8381 45.1072 31.26 44.625 30.7917L41.9166 28.125L45.6666 27.5834C46.3375 27.4937 46.9765 27.242 47.5282 26.85C48.08 26.4579 48.5279 25.9374 48.8333 25.3334L50.5 21.9167L52.1666 25.3334C52.472 25.9374 52.92 26.4579 53.4717 26.85C54.0235 27.242 54.6624 27.4937 55.3333 27.5834L59.0833 28.125L56.375 30.7917C55.8927 31.26 55.5309 31.8381 55.3205 32.4766C55.1101 33.1151 55.0573 33.795 55.1666 34.4584L55.7917 38.2084L52.4583 36.4584C51.8565 36.1335 51.1839 35.9618 50.5 35.9584Z" fill="#464DDA"/>
</svg>
