<svg width="101" height="100" viewBox="0 0 101 100" fill="none" xmlns="http://www.w3.org/2000/svg">
<path d="M87.4583 71.875L76.1667 52.375C78.4773 48.1313 79.681 43.3736 79.6667 38.5417C79.6667 30.8062 76.5938 23.3875 71.124 17.9177C65.6541 12.4479 58.2355 9.375 50.5 9.375C42.7645 9.375 35.3459 12.4479 29.8761 17.9177C24.4062 23.3875 21.3333 30.8062 21.3333 38.5417C21.319 43.3736 22.5227 48.1313 24.8333 52.375L13.5417 71.875C13.1753 72.5096 12.9827 73.2297 12.9834 73.9625C12.9842 74.6953 13.1781 75.415 13.5458 76.0489C13.9135 76.6828 14.4418 77.2085 15.0775 77.573C15.7133 77.9375 16.4339 78.1279 17.1667 78.125H29.125L35.2083 88.375C35.4134 88.7147 35.666 89.0234 35.9583 89.2917C36.7307 90.0362 37.7606 90.4541 38.8333 90.4583H39.4167C40.0457 90.3723 40.6468 90.1436 41.1739 89.7897C41.7011 89.4359 42.1404 88.9662 42.4583 88.4167L50.5 74.5833L58.5417 88.5417C58.8643 89.0835 59.3057 89.545 59.8325 89.8914C60.3594 90.2379 60.9581 90.4602 61.5833 90.5417H62.1667C63.2539 90.5482 64.3006 90.1295 65.0833 89.375C65.3636 89.122 65.6026 88.8268 65.7917 88.5L71.875 78.25H83.8333C84.5675 78.2529 85.2895 78.0618 85.9261 77.6959C86.5626 77.3301 87.0912 76.8025 87.4583 76.1667C87.8477 75.5186 88.0534 74.7769 88.0534 74.0208C88.0534 73.2648 87.8477 72.5231 87.4583 71.875V71.875ZM38.7917 78.25L35.0833 72.0417C34.7182 71.4257 34.2005 70.9143 33.5801 70.5566C32.9597 70.199 32.2577 70.0073 31.5417 70H24.3333L30.2917 59.6667C34.3947 63.6203 39.5659 66.2856 45.1667 67.3333L38.7917 78.25ZM50.5 59.375C46.3796 59.375 42.3517 58.1531 38.9256 55.864C35.4996 53.5748 32.8293 50.321 31.2525 46.5142C29.6757 42.7074 29.2631 38.5186 30.067 34.4773C30.8708 30.436 32.855 26.7239 35.7686 23.8103C38.6822 20.8967 42.3944 18.9125 46.4356 18.1086C50.4769 17.3048 54.6658 17.7174 58.4726 19.2942C62.2794 20.871 65.5331 23.5413 67.8223 26.9673C70.1115 30.3933 71.3333 34.4212 71.3333 38.5417C71.3333 44.067 69.1384 49.3661 65.2314 53.2731C61.3244 57.1801 56.0254 59.375 50.5 59.375V59.375ZM69.4583 70C68.7423 70.0073 68.0403 70.199 67.4199 70.5566C66.7996 70.9143 66.2818 71.4257 65.9167 72.0417L62.2083 78.25L55.875 67.2083C61.4562 66.1392 66.6082 63.4763 70.7083 59.5417L76.6667 69.875L69.4583 70Z" fill="#464DDA"/>
</svg>
