<svg width="101" height="100" viewBox="0 0 101 100" fill="none" xmlns="http://www.w3.org/2000/svg">
<path d="M90.0417 42.4584L85.875 40.1667L48.375 19.3334H47.9167C47.6612 19.2254 47.3962 19.1417 47.125 19.0834H46.3333H45.5833C45.2987 19.1417 45.0198 19.2254 44.75 19.3334H44.2917L6.79167 40.1667C6.15043 40.5301 5.61706 41.0571 5.24598 41.694C4.8749 42.3308 4.67938 43.0547 4.67938 43.7917C4.67938 44.5288 4.8749 45.2526 5.24598 45.8895C5.61706 46.5263 6.15043 47.0533 6.79167 47.4167L17.1667 53.1667V72.9167C17.1667 76.2319 18.4836 79.4114 20.8278 81.7556C23.172 84.0998 26.3515 85.4167 29.6667 85.4167H63C66.3152 85.4167 69.4946 84.0998 71.8388 81.7556C74.183 79.4114 75.5 76.2319 75.5 72.9167V53.1667L83.8333 48.5V60.4167C83.8333 61.5218 84.2723 62.5816 85.0537 63.363C85.8351 64.1444 86.8949 64.5834 88 64.5834C89.1051 64.5834 90.1649 64.1444 90.9463 63.363C91.7277 62.5816 92.1667 61.5218 92.1667 60.4167V46.0834C92.1654 45.3451 91.968 44.6203 91.5946 43.9834C91.2212 43.3464 90.6853 42.8202 90.0417 42.4584V42.4584ZM67.1667 72.9167C67.1667 74.0218 66.7277 75.0816 65.9463 75.863C65.1649 76.6444 64.1051 77.0834 63 77.0834H29.6667C28.5616 77.0834 27.5018 76.6444 26.7204 75.863C25.939 75.0816 25.5 74.0218 25.5 72.9167V57.7917L44.2917 68.2084L44.9167 68.4584H45.2917C45.6375 68.502 45.9875 68.502 46.3333 68.4584C46.6792 68.502 47.0291 68.502 47.375 68.4584H47.75C47.9712 68.4118 48.1827 68.3272 48.375 68.2084L67.1667 57.7917V72.9167ZM46.3333 59.8334L17.4167 43.75L46.3333 27.6667L75.25 43.75L46.3333 59.8334Z" fill="#464DDA"/>
</svg>
