<svg width="126" height="282" viewBox="0 0 126 282" fill="none" xmlns="http://www.w3.org/2000/svg">
<path d="M126 244.974C111.485 246.292 103.146 247.505 98.0257 251.514C92.0086 256.208 90.5835 264.805 89 282C87.3638 264.172 85.8859 255.628 79.2882 251.039C74.1683 247.453 65.8816 246.292 52 245.026C66.4622 243.708 74.8545 242.495 79.9215 238.539C85.9914 233.792 87.4165 225.247 89 208C90.4779 223.876 91.7974 232.368 96.7061 237.273C101.615 242.178 110.165 243.55 126 244.974Z" fill="white"/>
<path d="M40.4708 0C34.0714 10.8962 30.5357 16.33 26.9708 16.33C23.4058 16.33 19.8701 10.8962 13.5 0C19.8701 10.8962 22.9091 16.6462 21.1266 19.665C19.3442 22.6838 12.7695 23 0 23C13.237 23 19.8117 23.3162 21.3019 26.6512C22.7045 29.7562 19.6656 35.4775 13.5 46C19.8993 35.1037 23.4351 29.67 27 29.67C30.5649 29.67 34.1007 35.1037 40.5 46C33.7208 34.4137 30.7403 28.6637 33.2532 25.7887C35.474 23.2587 42.0195 23 54 23C40.5 23 33.9253 22.655 32.6104 19.1187C31.4123 15.9562 34.4513 10.2638 40.4708 0Z" fill="white"/>
</svg>
